0
SECTION
2
ENTITIES
0
POLYLINE
8
0
66
1
70
8
0
VERTEX
8
0
70
32
10
-13147424.3
20
4024937.77206
30
0.0
0
VERTEX
8
0
70
32
10
-13147400.3788
20
4024927.87447
30
0.0
0
VERTEX
8
0
70
32
10
-13147283.1753
20
4025235.10671
30
0.0
0
VERTEX
8
0
70
32
10
-13147284.8739
20
4025240.22734
30
0.0
0
VERTEX
8
0
70
32
10
-13147231.368
20
4025360.05017
30
0.0
0
VERTEX
8
0
70
32
10
-13147225.4229
20
4025362.09847
30
0.0
0
VERTEX
8
0
70
32
10
-13147137.7721
20
4025527.39772
30
0.0
0
VERTEX
8
0
70
32
10
-13147059.0454
20
4025670.7038
30
0.0
0
VERTEX
8
0
70
32
10
-13146824.7983
20
4026060.17855
30
0.0
0
VERTEX
8
0
70
32
10
-13146660.4435
20
4026331.16407
30
0.0
0
VERTEX
8
0
70
32
10
-13146528.9966
20
4026545.03296
30
0.0
0
VERTEX
8
0
70
32
10
-13146595.242
20
4026590.09957
30
0.0
0
VERTEX
8
0
70
32
10
-13146385.9161
20
4026912.83584
30
0.0
0
VERTEX
8
0
70
32
10
-13146296.2884
20
4027051.01816
30
0.0
0
VERTEX
8
0
70
32
10
-13146275.0558
20
4027051.01818
30
0.0
0
VERTEX
8
0
70
32
10
-13146272.508
20
4027054.60318
30
0.0
0
VERTEX
8
0
70
32
10
-13146311.7422
20
4027343.35671
30
0.0
0
VERTEX
8
0
70
32
10
-13146376.3736
20
4027784.12078
30
0.0
0
VERTEX
8
0
70
32
10
-13146383.5787
20
4027833.51091
30
0.0
0
VERTEX
8
0
70
32
10
-13146417.4147
20
4027866.53489
30
0.0
0
VERTEX
8
0
70
32
10
-13146427.0807
20
4027885.8403
30
0.0
0
VERTEX
8
0
70
32
10
-13146434.0751
20
4027894.41921
30
0.0
0
VERTEX
8
0
70
32
10
-13146431.7787
20
4027913.59266
30
0.0
0
VERTEX
8
0
70
32
10
-13146423.7966
20
4027930.08886
30
0.0
0
VERTEX
8
0
70
32
10
-13146416.889
20
4027931.42436
30
0.0
0
VERTEX
8
0
70
32
10
-13146241.2318
20
4028036.37195
30
0.0
0
VERTEX
8
0
70
32
10
-13146234.2894
20
4028040.5196
30
0.0
0
VERTEX
8
0
70
32
10
-13146254.0366
20
4028140.37159
30
0.0
0
VERTEX
8
0
70
32
10
-13146081.4544
20
4028322.02808
30
0.0
0
VERTEX
8
0
70
32
10
-13145969.5823
20
4028434.28157
30
0.0
0
VERTEX
8
0
70
32
10
-13145965.0612
20
4028439.0076
30
0.0
0
VERTEX
8
0
70
32
10
-13145816.0202
20
4028732.18134
30
0.0
0
VERTEX
8
0
70
32
10
-13145626.1905
20
4029108.47848
30
0.0
0
VERTEX
8
0
70
32
10
-13145627.889
20
4029126.91892
30
0.0
0
VERTEX
8
0
70
32
10
-13145556.5478
20
4029268.80897
30
0.0
0
VERTEX
8
0
70
32
10
-13145398.5779
20
4029186.33839
30
0.0
0
VERTEX
8
0
70
32
10
-13145384.1397
20
4029185.82616
30
0.0
0
VERTEX
8
0
70
32
10
-13145355.7697
20
4029439.74496
30
0.0
0
VERTEX
8
0
70
32
10
-13145341.6748
20
4029577.18267
30
0.0
0
VERTEX
8
0
70
32
10
-13145336.579
20
4029581.28065
30
0.0
0
VERTEX
8
0
70
32
10
-13145328.086
20
4029676.56059
30
0.0
0
VERTEX
8
0
70
32
10
-13145345.072
20
4029687.31813
30
0.0
0
VERTEX
8
0
70
32
10
-13145334.4289
20
4029739.00919
30
0.0
0
VERTEX
8
0
70
32
10
-13145317.1579
20
4029898.90255
30
0.0
0
VERTEX
8
0
70
32
10
-13145260.8542
20
4030394.09697
30
0.0
0
VERTEX
8
0
70
32
10
-13145226.17
20
4030664.24069
30
0.0
0
VERTEX
8
0
70
32
10
-13145164.1221
20
4030922.12688
30
0.0
0
VERTEX
8
0
70
32
10
-13145133.5962
20
4031040.79052
30
0.0
0
VERTEX
8
0
70
32
10
-13145136.9935
20
4031052.06158
30
0.0
0
VERTEX
8
0
70
32
10
-13145134.4456
20
4031062.3081
30
0.0
0
VERTEX
8
0
70
32
10
-13145137.8428
20
4031073.0668
30
0.0
0
VERTEX
8
0
70
32
10
-13145194.7459
20
4031085.87494
30
0.0
0
VERTEX
8
0
70
32
10
-13145336.5791
20
4031252.38119
30
0.0
0
VERTEX
8
0
70
32
10
-13145328.0861
20
4031259.5538
30
0.0
0
VERTEX
8
0
70
32
10
-13145330.6339
20
4031262.62781
30
0.0
0
VERTEX
8
0
70
32
10
-13145339.127
20
4031255.45519
30
0.0
0
VERTEX
8
0
70
32
10
-13145404.1035
20
4031340.48693
30
0.0
0
VERTEX
8
0
70
32
10
-13145265.3076
20
4031708.72634
30
0.0
0
VERTEX
8
0
70
32
10
-13145239.7588
20
4031776.5076
30
0.0
0
VERTEX
8
0
70
32
10
-13145267.7858
20
4032023.97746
30
0.0
0
VERTEX
8
0
70
32
10
-13145049.5156
20
4032167.44072
30
0.0
0
VERTEX
8
0
70
32
10
-13145043.5705
20
4032297.58389
30
0.0
0
VERTEX
8
0
70
32
10
-13145070.7481
20
4032424.6543
30
0.0
0
VERTEX
8
0
70
32
10
-13145038.9312
20
4032558.70254
30
0.0
0
VERTEX
8
0
70
32
10
-13145018.3931
20
4032651.1132
30
0.0
0
VERTEX
8
0
70
32
10
-13145007.9
20
4032809.4608
30
0.0
0
VERTEX
8
0
70
32
10
-13144900.8264
20
4033049.66479
30
0.0
0
VERTEX
8
0
70
32
10
-13144880.5049
20
4033092.82193
30
0.0
0
VERTEX
8
0
70
32
10
-13144875.409
20
4033152.26206
30
0.0
0
VERTEX
8
0
70
32
10
-13144830.3961
20
4033150.72482
30
0.0
0
VERTEX
8
0
70
32
10
-13144675.8235
20
4033294.2023
30
0.0
0
VERTEX
8
0
70
32
10
-13144745.8055
20
4033386.88775
30
0.0
0
VERTEX
8
0
70
32
10
-13144759.9043
20
4033411.03522
30
0.0
0
VERTEX
8
0
70
32
10
-13144703.7502
20
4033445.37959
30
0.0
0
VERTEX
8
0
70
32
10
-13144664.1925
20
4033477.26705
30
0.0
0
VERTEX
8
0
70
32
10
-13144639.5915
20
4033507.65652
30
0.0
0
VERTEX
8
0
70
32
10
-13144617.2217
20
4033554.51585
30
0.0
0
VERTEX
8
0
70
32
10
-13144611.7369
20
4033596.54998
30
0.0
0
VERTEX
8
0
70
32
10
-13144618.9204
20
4033652.90365
30
0.0
0
VERTEX
8
0
70
32
10
-13144641.7405
20
4033693.54446
30
0.0
0
VERTEX
8
0
70
32
10
-13144714.042
20
4033781.52648
30
0.0
0
VERTEX
8
0
70
32
10
-13144726.7815
20
4033784.60113
30
0.0
0
VERTEX
8
0
70
32
10
-13144782.8354
20
4033856.34367
30
0.0
0
VERTEX
8
0
70
32
10
-13144772.6438
20
4033879.91629
30
0.0
0
VERTEX
8
0
70
32
10
-13144768.3973
20
4033880.42869
30
0.0
0
VERTEX
8
0
70
32
10
-13144691.111
20
4033978.3069
30
0.0
0
VERTEX
8
0
70
32
10
-13144691.111
20
4033984.45634
30
0.0
0
VERTEX
8
0
70
32
10
-13144650.3445
20
4034037.23914
30
0.0
0
VERTEX
8
0
70
32
10
-13144725.0829
20
4034165.35392
30
0.0
0
VERTEX
8
0
70
32
10
-13144722.535
20
4034170.99099
30
0.0
0
VERTEX
8
0
70
32
10
-13144815.9581
20
4034306.79424
30
0.0
0
VERTEX
8
0
70
32
10
-13144817.3449
20
4034794.17205
30
0.0
0
VERTEX
8
0
70
32
10
-13144820.3634
20
4035356.5951
30
0.0
0
VERTEX
8
0
70
32
10
-13144818.5062
20
4035603.92476
30
0.0
0
VERTEX
8
0
70
32
10
-13144819.3554
20
4035734.10725
30
0.0
0
VERTEX
8
0
70
32
10
-13144808.3145
20
4035752.0459
30
0.0
0
VERTEX
8
0
70
32
10
-13144809.8693
20
4036051.9952
30
0.0
0
VERTEX
8
0
70
32
10
-13144810.8624
20
4036243.57574
30
0.0
0
VERTEX
8
0
70
32
10
-13144807.4652
20
4036260.49012
30
0.0
0
VERTEX
8
0
70
32
10
-13144808.8175
20
4036597.13366
30
0.0
0
VERTEX
8
0
70
32
10
-13144809.1638
20
4036695.65852
30
0.0
0
SEQEND
0
POLYLINE
8
0
66
1
70
8
0
VERTEX
8
0
70
32
10
-13186098.4518
20
4033263.09377
30
0.0
0
VERTEX
8
0
70
32
10
-13186083.4672
20
4033242.95727
30
0.0
0
VERTEX
8
0
70
32
10
-13186080.07
20
4033246.03184
30
0.0
0
VERTEX
8
0
70
32
10
-13186051.1938
20
4033206.06308
30
0.0
0
VERTEX
8
0
70
32
10
-13185995.1399
20
4033175.8304
30
0.0
0
VERTEX
8
0
70
32
10
-13185978.1539
20
4033106.65426
30
0.0
0
VERTEX
8
0
70
32
10
-13185918.703
20
4033071.81019
30
0.0
0
VERTEX
8
0
70
32
10
-13185866.0463
20
4033084.10814
30
0.0
0
VERTEX
8
0
70
32
10
-13185800.2442
20
4032972.45045
30
0.0
0
VERTEX
8
0
70
32
10
-13185718.2681
20
4032833.02847
30
0.0
0
VERTEX
8
0
70
32
10
-13185713.1722
20
4032798.18516
30
0.0
0
VERTEX
8
0
70
32
10
-13185661.8702
20
4032711.84226
30
0.0
0
VERTEX
8
0
70
32
10
-13185641.8309
20
4032696.73035
30
0.0
0
VERTEX
8
0
70
32
10
-13185548.8928
20
4032555.07841
30
0.0
0
VERTEX
8
0
70
32
10
-13185423.4712
20
4032363.22366
30
0.0
0
VERTEX
8
0
70
32
10
-13185287.8011
20
4032155.97585
30
0.0
0
VERTEX
8
0
70
32
10
-13185234.1668
20
4032072.13721
30
0.0
0
VERTEX
8
0
70
32
10
-13185206.9891
20
4032017.31396
30
0.0
0
VERTEX
8
0
70
32
10
-13185057.5122
20
4032105.95351
30
0.0
0
VERTEX
8
0
70
32
10
-13184983.9791
20
4031993.50702
30
0.0
0
VERTEX
8
0
70
32
10
-13184806.1192
20
4031716.04724
30
0.0
0
VERTEX
8
0
70
32
10
-13184738.0745
20
4031605.67872
30
0.0
0
VERTEX
8
0
70
32
10
-13184614.1463
20
4031417.0376
30
0.0
0
VERTEX
8
0
70
32
10
-13184558.0467
20
4031330.74767
30
0.0
0
VERTEX
8
0
70
32
10
-13184394.1908
20
4031079.03399
30
0.0
0
VERTEX
8
0
70
32
10
-13184370.6484
20
4031043.0194
30
0.0
0
VERTEX
8
0
70
32
10
-13184198.0201
20
4030778.99473
30
0.0
0
VERTEX
8
0
70
32
10
-13184100.3505
20
4030629.40135
30
0.0
0
VERTEX
8
0
70
32
10
-13184095.2547
20
4030609.42153
30
0.0
0
VERTEX
8
0
70
32
10
-13184015.1008
20
4030484.5927
30
0.0
0
VERTEX
8
0
70
32
10
-13183934.7429
20
4030354.79878
30
0.0
0
VERTEX
8
0
70
32
10
-13183734.5176
20
4030047.12378
30
0.0
0
VERTEX
8
0
70
32
10
-13183602.3181
20
4029845.1005
30
0.0
0
VERTEX
8
0
70
32
10
-13183473.0741
20
4029657.54386
30
0.0
0
VERTEX
8
0
70
32
10
-13183435.6907
20
4029604.06333
30
0.0
0
VERTEX
8
0
70
32
10
-13183358.9111
20
4029488.04793
30
0.0
0
VERTEX
8
0
70
32
10
-13183319.8433
20
4029456.80062
30
0.0
0
VERTEX
8
0
70
32
10
-13183203.225
20
4029277.62678
30
0.0
0
VERTEX
8
0
70
32
10
-13183038.345
20
4029024.12736
30
0.0
0
VERTEX
8
0
70
32
10
-13182866.974
20
4028762.27255
30
0.0
0
VERTEX
8
0
70
32
10
-13182715.8103
20
4028532.70702
30
0.0
0
VERTEX
8
0
70
32
10
-13182672.026
20
4028471.43411
30
0.0
0
VERTEX
8
0
70
32
10
-13182488.9987
20
4028324.9306
30
0.0
0
VERTEX
8
0
70
32
10
-13182262.3193
20
4028145.52892
30
0.0
0
VERTEX
8
0
70
32
10
-13182172.3761
20
4028076.2302
30
0.0
0
VERTEX
8
0
70
32
10
-13181956.4242
20
4027906.07805
30
0.0
0
VERTEX
8
0
70
32
10
-13181847.1562
20
4027817.71821
30
0.0
0
VERTEX
8
0
70
32
10
-13181711.3718
20
4027648.42447
30
0.0
0
VERTEX
8
0
70
32
10
-13181558.1287
20
4027453.16622
30
0.0
0
VERTEX
8
0
70
32
10
-13181402.5874
20
4027262.23112
30
0.0
0
VERTEX
8
0
70
32
10
-13181284.9192
20
4027111.44863
30
0.0
0
VERTEX
8
0
70
32
10
-13181285.7686
20
4027108.37582
30
0.0
0
VERTEX
8
0
70
32
10
-13181258.5909
20
4027080.20788
30
0.0
0
VERTEX
8
0
70
32
10
-13181255.1937
20
4027080.20787
30
0.0
0
VERTEX
8
0
70
32
10
-13181203.6137
20
4027027.24845
30
0.0
0
VERTEX
8
0
70
32
10
-13181007.1588
20
4026827.19051
30
0.0
0
VERTEX
8
0
70
32
10
-13180841.0962
20
4026651.99875
30
0.0
0
VERTEX
8
0
70
32
10
-13180842.4337
20
4026639.77315
30
0.0
0
VERTEX
8
0
70
32
10
-13180833.6463
20
4026628.90084
30
0.0
0
VERTEX
8
0
70
32
10
-13180745.6134
20
4026584.46392
30
0.0
0
VERTEX
8
0
70
32
10
-13180707.3949
20
4026598.80325
30
0.0
0
VERTEX
8
0
70
32
10
-13180645.4339
20
4026616.28736
30
0.0
0
VERTEX
8
0
70
32
10
-13180561.1969
20
4026631.55563
30
0.0
0
VERTEX
8
0
70
32
10
-13180507.0706
20
4026636.2933
30
0.0
0
VERTEX
8
0
70
32
10
-13180413.2266
20
4026634.77795
30
0.0
0
VERTEX
8
0
70
32
10
-13180326.2095
20
4026625.13516
30
0.0
0
VERTEX
8
0
70
32
10
-13180275.1135
20
4026614.41964
30
0.0
0
VERTEX
8
0
70
32
10
-13180077.7024
20
4026536.37393
30
0.0
0
VERTEX
8
0
70
32
10
-13180005.1722
20
4026482.78926
30
0.0
0
VERTEX
8
0
70
32
10
-13179957.4626
20
4026413.92894
30
0.0
0
VERTEX
8
0
70
32
10
-13179967.6542
20
4026394.98068
30
0.0
0
VERTEX
8
0
70
32
10
-13179776.5616
20
4026288.46182
30
0.0
0
VERTEX
8
0
70
32
10
-13179768.7215
20
4026282.56211
30
0.0
0
VERTEX
8
0
70
32
10
-13179773.9493
20
4026057.34334
30
0.0
0
VERTEX
8
0
70
32
10
-13179774.0136
20
4025879.29491
30
0.0
0
VERTEX
8
0
70
32
10
-13179777.653
20
4025588.55085
30
0.0
0
VERTEX
8
0
70
32
10
-13179781.3469
20
4025269.17183
30
0.0
0
VERTEX
8
0
70
32
10
-13179786.0459
20
4024972.56645
30
0.0
0
VERTEX
8
0
70
32
10
-13179789.6892
20
4024817.76017
30
0.0
0
VERTEX
8
0
70
32
10
-13179791.163
20
4024702.51095
30
0.0
0
VERTEX
8
0
70
32
10
-13179788.4516
20
4024513.63401
30
0.0
0
VERTEX
8
0
70
32
10
-13179795.2461
20
4024372.82709
30
0.0
0
VERTEX
8
0
70
32
10
-13179551.8651
20
4024347.05232
30
0.0
0
VERTEX
8
0
70
32
10
-13179218.8049
20
4024311.70432
30
0.0
0
VERTEX
8
0
70
32
10
-13178897.667
20
4024274.22953
30
0.0
0
VERTEX
8
0
70
32
10
-13178850.8564
20
4024255.7125
30
0.0
0
VERTEX
8
0
70
32
10
-13178753.6436
20
4024178.61284
30
0.0
0
VERTEX
8
0
70
32
10
-13178659.7313
20
4024090.19455
30
0.0
0
VERTEX
8
0
70
32
10
-13178629.1565
20
4024122.96322
30
0.0
0
VERTEX
8
0
70
32
10
-13178582.445
20
4024085.58644
30
0.0
0
VERTEX
8
0
70
32
10
-13178590.0887
20
4023898.70469
30
0.0
0
VERTEX
8
0
70
32
10
-13178282.9285
20
4023899.46528
30
0.0
0
VERTEX
8
0
70
32
10
-13177859.6903
20
4023898.19274
30
0.0
0
VERTEX
8
0
70
32
10
-13177862.6846
20
4023540.78151
30
0.0
0
VERTEX
8
0
70
32
10
-13177865.4227
20
4023476.22539
30
0.0
0
VERTEX
8
0
70
32
10
-13177870.899
20
4023437.60022
30
0.0
0
VERTEX
8
0
70
32
10
-13177870.9722
20
4023178.36479
30
0.0
0
VERTEX
8
0
70
32
10
-13177870.2566
20
4022903.58683
30
0.0
0
VERTEX
8
0
70
32
10
-13177869.8085
20
4022739.32343
30
0.0
0
VERTEX
8
0
70
32
10
-13177869.0325
20
4022454.95422
30
0.0
0
VERTEX
8
0
70
32
10
-13177840.1563
20
4022454.95417
30
0.0
0
VERTEX
8
0
70
32
10
-13177839.609
20
4022302.43058
30
0.0
0
VERTEX
8
0
70
32
10
-13177837.6761
20
4021828.66371
30
0.0
0
VERTEX
8
0
70
32
10
-13177838.4576
20
4021446.99689
30
0.0
0
VERTEX
8
0
70
32
10
-13177837.1292
20
4021344.57578
30
0.0
0
VERTEX
8
0
70
32
10
-13177834.5921
20
4021065.12792
30
0.0
0
VERTEX
8
0
70
32
10
-13177834.2111
20
4021023.15916
30
0.0
0
VERTEX
8
0
70
32
10
-13177193.4467
20
4021021.8853
30
0.0
0
VERTEX
8
0
70
32
10
-13177049.4574
20
4021021.62366
30
0.0
0
VERTEX
8
0
70
32
10
-13177019.732
20
4021018.04049
30
0.0
0
VERTEX
8
0
70
32
10
-13177000.1981
20
4021013.94557
30
0.0
0
VERTEX
8
0
70
32
10
-13176976.0134
20
4021007.14347
30
0.0
0
VERTEX
8
0
70
32
10
-13176951.8236
20
4021000.13578
30
0.0
0
VERTEX
8
0
70
32
10
-13176919.5145
20
4020993.4707
30
0.0
0
VERTEX
8
0
70
32
10
-13176672.9788
20
4020993.81452
30
0.0
0
VERTEX
8
0
70
32
10
-13176418.8147
20
4020994.49644
30
0.0
0
VERTEX
8
0
70
32
10
-13175911.3948
20
4020994.49458
30
0.0
0
VERTEX
8
0
70
32
10
-13175881.9423
20
4020998.07763
30
0.0
0
VERTEX
8
0
70
32
10
-13175551.4032
20
4020996.80024
30
0.0
0
VERTEX
8
0
70
32
10
-13174866.3578
20
4020996.09673
30
0.0
0
VERTEX
8
0
70
32
10
-13174011.5097
20
4020997.56587
30
0.0
0
VERTEX
8
0
70
32
10
-13173159.2746
20
4020998.92803
30
0.0
0
VERTEX
8
0
70
32
10
-13172593.7457
20
4020997.35814
30
0.0
0
VERTEX
8
0
70
32
10
-13172063.5556
20
4020997.76531
30
0.0
0
VERTEX
8
0
70
32
10
-13172022.448
20
4020999.1016
30
0.0
0
VERTEX
8
0
70
32
10
-13172006.3114
20
4021009.33911
30
0.0
0
VERTEX
8
0
70
32
10
-13172019.0508
20
4021022.13581
30
0.0
0
VERTEX
8
0
70
32
10
-13172019.0509
20
4021033.39697
30
0.0
0
VERTEX
8
0
70
32
10
-13172012.2565
20
4021033.39707
30
0.0
0
VERTEX
8
0
70
32
10
-13172012.2564
20
4021017.52904
30
0.0
0
VERTEX
8
0
70
32
10
-13171983.3803
20
4021018.04086
30
0.0
0
VERTEX
8
0
70
32
10
-13171983.3802
20
4020996.0304
30
0.0
0
VERTEX
8
0
70
32
10
-13171870.5163
20
4020995.75231
30
0.0
0
VERTEX
8
0
70
32
10
-13171049.999
20
4020993.98295
30
0.0
0
VERTEX
8
0
70
32
10
-13171033.0131
20
4021001.14924
30
0.0
0
VERTEX
8
0
70
32
10
-13170789.8023
20
4021000.59102
30
0.0
0
VERTEX
8
0
70
32
10
-13170351.6618
20
4020999.61375
30
0.0
0
VERTEX
8
0
70
32
10
-13170225.3283
20
4020999.61363
30
0.0
0
VERTEX
8
0
70
32
10
-13170225.3283
20
4021181.84107
30
0.0
0
VERTEX
8
0
70
32
10
-13169326.3994
20
4021182.00277
30
0.0
0
VERTEX
8
0
70
32
10
-13168479.5428
20
4021182.73735
30
0.0
0
VERTEX
8
0
70
32
10
-13168186.1579
20
4021183.37687
30
0.0
0
VERTEX
8
0
70
32
10
-13168186.1579
20
4021255.55198
30
0.0
0
VERTEX
8
0
70
32
10
-13167404.8015
20
4021258.62329
30
0.0
0
VERTEX
8
0
70
32
10
-13167403.9522
20
4021371.7499
30
0.0
0
VERTEX
8
0
70
32
10
-13166813.6673
20
4021374.99858
30
0.0
0
VERTEX
8
0
70
32
10
-13166021.7368
20
4021378.73065
30
0.0
0
VERTEX
8
0
70
32
10
-13165209.3599
20
4021380.96395
30
0.0
0
VERTEX
8
0
70
32
10
-13165210.2091
20
4021496.65116
30
0.0
0
VERTEX
8
0
70
32
10
-13164202.3508
20
4021506.88927
30
0.0
0
VERTEX
8
0
70
32
10
-13164011.8461
20
4021507.40104
30
0.0
0
VERTEX
8
0
70
32
10
-13163968.5319
20
4021510.98437
30
0.0
0
VERTEX
8
0
70
32
10
-13163408.0118
20
4021510.89622
30
0.0
0
VERTEX
8
0
70
32
10
-13163124.3272
20
4021510.98443
30
0.0
0
VERTEX
8
0
70
32
10
-13163111.5877
20
4021521.73411
30
0.0
0
VERTEX
8
0
70
32
10
-13162567.9162
20
4021511.30462
30
0.0
0
VERTEX
8
0
70
32
10
-13162242.6005
20
4021506.64409
30
0.0
0
VERTEX
8
0
70
32
10
-13162186.6995
20
4021507.40116
30
0.0
0
VERTEX
8
0
70
32
10
-13162185.8503
20
4021845.76775
30
0.0
0
VERTEX
8
0
70
32
10
-13162136.5908
20
4021846.79154
30
0.0
0
VERTEX
8
0
70
32
10
-13162134.8923
20
4022160.59586
30
0.0
0
VERTEX
8
0
70
32
10
-13161809.3567
20
4022160.06062
30
0.0
0
VERTEX
8
0
70
32
10
-13161377.3162
20
4022159.06013
30
0.0
0
VERTEX
8
0
70
32
10
-13161375.6177
20
4022404.78575
30
0.0
0
VERTEX
8
0
70
32
10
-13161308.5229
20
4022405.29763
30
0.0
0
VERTEX
8
0
70
32
10
-13161244.7323
20
4022419.07061
30
0.0
0
VERTEX
8
0
70
32
10
-13161266.0579
20
4022533.28179
30
0.0
0
VERTEX
8
0
70
32
10
-13161158.1968
20
4022611.6088
30
0.0
0
VERTEX
8
0
70
32
10
-13161149.7037
20
4022679.69734
30
0.0
0
VERTEX
8
0
70
32
10
-13160767.7737
20
4022631.1462
30
0.0
0
VERTEX
8
0
70
32
10
-13160728.4507
20
4022631.06271
30
0.0
0
VERTEX
8
0
70
32
10
-13160700.4237
20
4022636.18207
30
0.0
0
VERTEX
8
0
70
32
10
-13160146.5062
20
4022570.40266
30
0.0
0
VERTEX
8
0
70
32
10
-13159878.3009
20
4022538.40126
30
0.0
0
VERTEX
8
0
70
32
10
-13159810.851
20
4023076.09297
30
0.0
0
VERTEX
8
0
70
32
10
-13159786.5765
20
4023264.86676
30
0.0
0
VERTEX
8
0
70
32
10
-13159497.3758
20
4023229.92683
30
0.0
0
VERTEX
8
0
70
32
10
-13158979.0563
20
4023167.2857
30
0.0
0
VERTEX
8
0
70
32
10
-13158349.0054
20
4023088.45876
30
0.0
0
VERTEX
8
0
70
32
10
-13157810.7094
20
4023023.87526
30
0.0
0
VERTEX
8
0
70
32
10
-13157679.4621
20
4023008.37171
30
0.0
0
VERTEX
8
0
70
32
10
-13157653.272
20
4023214.96601
30
0.0
0
VERTEX
8
0
70
32
10
-13157606.4576
20
4023590.58312
30
0.0
0
VERTEX
8
0
70
32
10
-13157591.1349
20
4023710.80343
30
0.0
0
VERTEX
8
0
70
32
10
-13157351.5217
20
4023680.08097
30
0.0
0
VERTEX
8
0
70
32
10
-13157092.5955
20
4023648.34053
30
0.0
0
VERTEX
8
0
70
32
10
-13157059.4728
20
4023616.59731
30
0.0
0
VERTEX
8
0
70
32
10
-13157036.5417
20
4023613.52541
30
0.0
0
VERTEX
8
0
70
32
10
-13157019.5556
20
4023622.2291
30
0.0
0
VERTEX
8
0
70
32
10
-13156829.9824
20
4023598.11984
30
0.0
0
VERTEX
8
0
70
32
10
-13156591.3717
20
4023567.76918
30
0.0
0
VERTEX
8
0
70
32
10
-13156485.8044
20
4023554.74174
30
0.0
0
VERTEX
8
0
70
32
10
-13156403.0463
20
4023544.05844
30
0.0
0
VERTEX
8
0
70
32
10
-13156316.8987
20
4023536.44652
30
0.0
0
VERTEX
8
0
70
32
10
-13155963.6181
20
4023491.47744
30
0.0
0
VERTEX
8
0
70
32
10
-13155529.9691
20
4023436.49922
30
0.0
0
VERTEX
8
0
70
32
10
-13155280.1883
20
4023404.63633
30
0.0
0
VERTEX
8
0
70
32
10
-13155256.4079
20
4023410.78012
30
0.0
0
VERTEX
8
0
70
32
10
-13154915.8385
20
4023367.26198
30
0.0
0
VERTEX
8
0
70
32
10
-13154678.8836
20
4023400.54053
30
0.0
0
VERTEX
8
0
70
32
10
-13154613.4875
20
4023392.34896
30
0.0
0
VERTEX
8
0
70
32
10
-13154596.5014
20
4023396.44473
30
0.0
0
VERTEX
8
0
70
32
10
-13154172.7005
20
4023345.759
30
0.0
0
VERTEX
8
0
70
32
10
-13154133.6327
20
4023389.27703
30
0.0
0
VERTEX
8
0
70
32
10
-13154074.1817
20
4023383.64528
30
0.0
0
VERTEX
8
0
70
32
10
-13154038.4195
20
4023395.25366
30
0.0
0
VERTEX
8
0
70
32
10
-13154008.3129
20
4023402.27886
30
0.0
0
VERTEX
8
0
70
32
10
-13153985.1148
20
4023401.69478
30
0.0
0
VERTEX
8
0
70
32
10
-13153518.3217
20
4023341.60631
30
0.0
0
VERTEX
8
0
70
32
10
-13153343.7832
20
4023318.11245
30
0.0
0
VERTEX
8
0
70
32
10
-13153330.1945
20
4023311.45681
30
0.0
0
VERTEX
8
0
70
32
10
-13153310.1498
20
4023292.77003
30
0.0
0
VERTEX
8
0
70
32
10
-13153260.5518
20
4023245.92419
30
0.0
0
VERTEX
8
0
70
32
10
-13153210.443
20
4023299.16936
30
0.0
0
VERTEX
8
0
70
32
10
-13153208.7445
20
4023307.36096
30
0.0
0
VERTEX
8
0
70
32
10
-13152933.5712
20
4023596.11809
30
0.0
0
VERTEX
8
0
70
32
10
-13152926.7768
20
4023597.65405
30
0.0
0
VERTEX
8
0
70
32
10
-13152825.71
20
4023705.1718
30
0.0
0
VERTEX
8
0
70
32
10
-13152700.0136
20
4023688.78808
30
0.0
0
VERTEX
8
0
70
32
10
-13152446.0728
20
4023966.29072
30
0.0
0
VERTEX
8
0
70
32
10
-13152361.7782
20
4024056.30467
30
0.0
0
VERTEX
8
0
70
32
10
-13152190.4333
20
4024238.68
30
0.0
0
VERTEX
8
0
70
32
10
-13151844.0323
20
4024193.16
30
0.0
0
VERTEX
8
0
70
32
10
-13151396.7491
20
4024137.37357
30
0.0
0
VERTEX
8
0
70
32
10
-13151158.5332
20
4024113.74882
30
0.0
0
VERTEX
8
0
70
32
10
-13151159.3826
20
4024106.58075
30
0.0
0
VERTEX
8
0
70
32
10
-13151012.4536
20
4024085.58835
30
0.0
0
VERTEX
8
0
70
32
10
-13151011.6042
20
4024092.75651
30
0.0
0
VERTEX
8
0
70
32
10
-13151003.9606
20
4024091.73238
30
0.0
0
VERTEX
8
0
70
32
10
-13150953.0025
20
4024184.40649
30
0.0
0
VERTEX
8
0
70
32
10
-13150892.7022
20
4024148.05357
30
0.0
0
VERTEX
8
0
70
32
10
-13150839.4576
20
4024045.92026
30
0.0
0
VERTEX
8
0
70
32
10
-13150768.7043
20
4024080.9802
30
0.0
0
VERTEX
8
0
70
32
10
-13150344.2701
20
4023822.83024
30
0.0
0
VERTEX
8
0
70
32
10
-13149867.1569
20
4023534.87781
30
0.0
0
VERTEX
8
0
70
32
10
-13149849.7612
20
4023524.44035
30
0.0
0
VERTEX
8
0
70
32
10
-13149558.457
20
4024010.71547
30
0.0
0
VERTEX
8
0
70
32
10
-13149284.9765
20
4024477.28202
30
0.0
0
VERTEX
8
0
70
32
10
-13148944.3638
20
4024658.8069
30
0.0
0
VERTEX
8
0
70
32
10
-13148855.2304
20
4024706.1603
30
0.0
0
VERTEX
8
0
70
32
10
-13148853.5319
20
4024736.3705
30
0.0
0
VERTEX
8
0
70
32
10
-13148688.753
20
4025075.7511
30
0.0
0
VERTEX
8
0
70
32
10
-13148678.5759
20
4025102.48376
30
0.0
0
VERTEX
8
0
70
32
10
-13148597.8924
20
4025351.85706
30
0.0
0
VERTEX
8
0
70
32
10
-13148256.4736
20
4025229.47406
30
0.0
0
VERTEX
8
0
70
32
10
-13148237.789
20
4025237.15491
30
0.0
0
VERTEX
8
0
70
32
10
-13147808.3132
20
4025079.065
30
0.0
0
VERTEX
8
0
70
32
10
-13147456.4326
20
4024942.21188
30
0.0
0
VERTEX
8
0
70
32
10
-13147443.6931
20
4024945.79611
30
0.0
0
VERTEX
8
0
70
32
10
-13147424.3
20
4024937.77206
30
0.0
0
SEQEND
0
POLYLINE
8
0
66
1
70
8
0
VERTEX
8
0
70
32
10
-13153456.7406
20
4028256.15164
30
0.0
0
VERTEX
8
0
70
32
10
-13153458.2996
20
4028252.1298
30
0.0
0
VERTEX
8
0
70
32
10
-13153502.6028
20
4028271.5175
30
0.0
0
VERTEX
8
0
70
32
10
-13153506.8493
20
4028262.81017
30
0.0
0
VERTEX
8
0
70
32
10
-13153509.3972
20
4028264.34673
30
0.0
0
VERTEX
8
0
70
32
10
-13153554.4102
20
4028160.37131
30
0.0
0
VERTEX
8
0
70
32
10
-13153575.3904
20
4028083.73543
30
0.0
0
VERTEX
8
0
70
32
10
-13153578.1905
20
4028064.07967
30
0.0
0
VERTEX
8
0
70
32
10
-13153579.8891
20
4028064.07961
30
0.0
0
VERTEX
8
0
70
32
10
-13153596.7802
20
4027929.21026
30
0.0
0
VERTEX
8
0
70
32
10
-13153618.6204
20
4027763.17117
30
0.0
0
VERTEX
8
0
70
32
10
-13153656.5931
20
4027471.76652
30
0.0
0
VERTEX
8
0
70
32
10
-13153688.9395
20
4027218.67675
30
0.0
0
VERTEX
8
0
70
32
10
-13153703.341
20
4027105.9919
30
0.0
0
VERTEX
8
0
70
32
10
-13153703.8869
20
4027101.71979
30
0.0
0
VERTEX
8
0
70
32
10
-13153711.5306
20
4027094.0377
30
0.0
0
VERTEX
8
0
70
32
10
-13153728.5166
20
4027096.08619
30
0.0
0
VERTEX
8
0
70
32
10
-13153752.093
20
4026915.92376
30
0.0
0
VERTEX
8
0
70
32
10
-13153791.9585
20
4026611.27534
30
0.0
0
VERTEX
8
0
70
32
10
-13153816.8438
20
4026419.56391
30
0.0
0
VERTEX
8
0
70
32
10
-13153876.8276
20
4026052.75183
30
0.0
0
VERTEX
8
0
70
32
10
-13151766.3521
20
4025771.25108
30
0.0
0
VERTEX
8
0
70
32
10
-13151376.6165
20
4026548.27003
30
0.0
0
VERTEX
8
0
70
32
10
-13151186.3366
20
4026904.85271
30
0.0
0
VERTEX
8
0
70
32
10
-13151067.5091
20
4027057.85557
30
0.0
0
SEQEND
0
POLYLINE
8
0
66
1
70
8
0
VERTEX
8
0
70
32
10
-13158274.2878
20
4031157.59946
30
0.0
0
VERTEX
8
0
70
32
10
-13158271.0656
20
4030843.94018
30
0.0
0
VERTEX
8
0
70
32
10
-13158269.7264
20
4030717.51958
30
0.0
0
VERTEX
8
0
70
32
10
-13158073.538
20
4030681.14587
30
0.0
0
VERTEX
8
0
70
32
10
-13158073.538
20
4030572.53769
30
0.0
0
VERTEX
8
0
70
32
10
-13157546.1224
20
4030516.69713
30
0.0
0
VERTEX
8
0
70
32
10
-13157179.7044
20
4030366.76267
30
0.0
0
VERTEX
8
0
70
32
10
-13157139.3075
20
4030350.71389
30
0.0
0
VERTEX
8
0
70
32
10
-13157135.061
20
4030352.76302
30
0.0
0
VERTEX
8
0
70
32
10
-13157103.6369
20
4030340.98042
30
0.0
0
VERTEX
8
0
70
32
10
-13157101.089
20
4030335.85743
30
0.0
0
VERTEX
8
0
70
32
10
-13156988.132
20
4030290.77605
30
0.0
0
VERTEX
8
0
70
32
10
-13157059.8025
20
4030112.84907
30
0.0
0
VERTEX
8
0
70
32
10
-13157068.8155
20
4030090.47346
30
0.0
0
VERTEX
8
0
70
32
10
-13156554.0888
20
4029879.05958
30
0.0
0
VERTEX
8
0
70
32
10
-13156166.8052
20
4029719.86539
30
0.0
0
VERTEX
8
0
70
32
10
-13155724.482
20
4029538.75093
30
0.0
0
VERTEX
8
0
70
32
10
-13155270.677
20
4029354.32817
30
0.0
0
VERTEX
8
0
70
32
10
-13154822.1493
20
4029173.8437
30
0.0
0
VERTEX
8
0
70
32
10
-13154446.861
20
4029021.0283
30
0.0
0
VERTEX
8
0
70
32
10
-13154422.5847
20
4029010.66314
30
0.0
0
VERTEX
8
0
70
32
10
-13154353.6019
20
4029066.47474
30
0.0
0
VERTEX
8
0
70
32
10
-13154085.9649
20
4028957.59541
30
0.0
0
VERTEX
8
0
70
32
10
-13153519.5889
20
4028726.35741
30
0.0
0
VERTEX
8
0
70
32
10
-13153466.9321
20
4028538.88741
30
0.0
0
VERTEX
8
0
70
32
10
-13153446.549
20
4028543.49733
30
0.0
0
VERTEX
8
0
70
32
10
-13153430.4123
20
4028479.98355
30
0.0
0
VERTEX
8
0
70
32
10
-13153452.4941
20
4028437.47049
30
0.0
0
VERTEX
8
0
70
32
10
-13153439.7545
20
4028431.83631
30
0.0
0
VERTEX
8
0
70
32
10
-13153484.7675
20
4028318.63967
30
0.0
0
VERTEX
8
0
70
32
10
-13153455.8913
20
4028306.85917
30
0.0
0
VERTEX
8
0
70
32
10
-13153472.8773
20
4028263.3224
30
0.0
0
VERTEX
8
0
70
32
10
-13153179.0804
20
4028143.06929
30
0.0
0
VERTEX
8
0
70
32
10
-13152597.1783
20
4027906.45643
30
0.0
0
VERTEX
8
0
70
32
10
-13152064.4519
20
4027686.5922
30
0.0
0
VERTEX
8
0
70
32
10
-13151769.1805
20
4027564.19568
30
0.0
0
VERTEX
8
0
70
32
10
-13151739.2086
20
4027518.72316
30
0.0
0
VERTEX
8
0
70
32
10
-13151407.0306
20
4027385.65991
30
0.0
0
VERTEX
8
0
70
32
10
-13151287.2103
20
4027329.591
30
0.0
0
VERTEX
8
0
70
32
10
-13151131.1144
20
4027133.35103
30
0.0
0
VERTEX
8
0
70
32
10
-13151067.5091
20
4027057.85557
30
0.0
0
VERTEX
8
0
70
32
10
-13150953.0028
20
4027186.73624
30
0.0
0
VERTEX
8
0
70
32
10
-13150902.5478
20
4027133.44596
30
0.0
0
VERTEX
8
0
70
32
10
-13150797.7648
20
4027054.93152
30
0.0
0
VERTEX
8
0
70
32
10
-13150735.8535
20
4027004.00782
30
0.0
0
VERTEX
8
0
70
32
10
-13150644.6539
20
4026898.40273
30
0.0
0
VERTEX
8
0
70
32
10
-13150591.3871
20
4026828.24153
30
0.0
0
VERTEX
8
0
70
32
10
-13150378.9214
20
4026566.99931
30
0.0
0
VERTEX
8
0
70
32
10
-13150160.5265
20
4026306.29259
30
0.0
0
VERTEX
8
0
70
32
10
-13149924.3288
20
4026021.93661
30
0.0
0
VERTEX
8
0
70
32
10
-13149681.626
20
4025731.16623
30
0.0
0
VERTEX
8
0
70
32
10
-13149473.5212
20
4025483.97072
30
0.0
0
VERTEX
8
0
70
32
10
-13149300.1033
20
4025316.91946
30
0.0
0
VERTEX
8
0
70
32
10
-13148870.1908
20
4025167.97865
30
0.0
0
VERTEX
8
0
70
32
10
-13148606.6505
20
4025065.00796
30
0.0
0
VERTEX
8
0
70
32
10
-13148413.1764
20
4024990.229
30
0.0
0
VERTEX
8
0
70
32
10
-13147962.1861
20
4024817.71005
30
0.0
0
VERTEX
8
0
70
32
10
-13147474.2828
20
4024642.80133
30
0.0
0
VERTEX
8
0
70
32
10
-13146940.8408
20
4024437.72923
30
0.0
0
VERTEX
8
0
70
32
10
-13146454.7066
20
4024260.46177
30
0.0
0
VERTEX
8
0
70
32
10
-13146053.0764
20
4024112.5107
30
0.0
0
VERTEX
8
0
70
32
10
-13145610.0533
20
4023947.34704
30
0.0
0
VERTEX
8
0
70
32
10
-13145587.1222
20
4023957.07513
30
0.0
0
VERTEX
8
0
70
32
10
-13145446.1384
20
4023904.85089
30
0.0
0
VERTEX
8
0
70
32
10
-13145435.9467
20
4023890.00293
30
0.0
0
VERTEX
8
0
70
32
10
-13145080.2865
20
4023755.11754
30
0.0
0
VERTEX
8
0
70
32
10
-13144849.9295
20
4023677.0129
30
0.0
0
VERTEX
8
0
70
32
10
-13144718.623
20
4023645.22231
30
0.0
0
VERTEX
8
0
70
32
10
-13144522.93
20
4023605.81291
30
0.0
0
VERTEX
8
0
70
32
10
-13144161.1467
20
4023530.07247
30
0.0
0
VERTEX
8
0
70
32
10
-13144167.9411
20
4023482.97002
30
0.0
0
VERTEX
8
0
70
32
10
-13144153.503
20
4023217.25446
30
0.0
0
VERTEX
8
0
70
32
10
-13144152.4078
20
4022914.80773
30
0.0
0
VERTEX
8
0
70
32
10
-13144155.2016
20
4022751.37116
30
0.0
0
VERTEX
8
0
70
32
10
-13144152.6537
20
4022739.0844
30
0.0
0
VERTEX
8
0
70
32
10
-13144151.7825
20
4022556.60035
30
0.0
0
VERTEX
8
0
70
32
10
-13144150.955
20
4022383.28566
30
0.0
0
VERTEX
8
0
70
32
10
-13143781.5094
20
4022270.14915
30
0.0
0
VERTEX
8
0
70
32
10
-13143790.8516
20
4022194.89597
30
0.0
0
VERTEX
8
0
70
32
10
-13143634.5803
20
4022203.08684
30
0.0
0
VERTEX
8
0
70
32
10
-13143633.7311
20
4022106.84534
30
0.0
0
VERTEX
8
0
70
32
10
-13143313.6694
20
4022103.26231
30
0.0
0
VERTEX
8
0
70
32
10
-13143277.8742
20
4022103.26203
30
0.0
0
VERTEX
8
0
70
32
10
-13143278.7235
20
4022230.21891
30
0.0
0
VERTEX
8
0
70
32
10
-13143242.2035
20
4022233.29043
30
0.0
0
VERTEX
8
0
70
32
10
-13143244.7514
20
4022274.75655
30
0.0
0
VERTEX
8
0
70
32
10
-13143168.3144
20
4022279.87581
30
0.0
0
VERTEX
8
0
70
32
10
-13143169.1637
20
4022294.7217
30
0.0
0
VERTEX
8
0
70
32
10
-13143179.3554
20
4022293.69781
30
0.0
0
VERTEX
8
0
70
32
10
-13143180.2046
20
4022311.10345
30
0.0
0
VERTEX
8
0
70
32
10
-13143017.9883
20
4022322.36593
30
0.0
0
VERTEX
8
0
70
32
10
-13142964.4823
20
4022371.51132
30
0.0
0
VERTEX
8
0
70
32
10
-13142771.107
20
4022614.73903
30
0.0
0
VERTEX
8
0
70
32
10
-13142516.7372
20
4022936.10158
30
0.0
0
VERTEX
8
0
70
32
10
-13142336.8494
20
4023162.47395
30
0.0
0
VERTEX
8
0
70
32
10
-13141995.8296
20
4023091.9449
30
0.0
0
VERTEX
8
0
70
32
10
-13141417.1747
20
4022973.5395
30
0.0
0
VERTEX
8
0
70
32
10
-13141361.8524
20
4022963.32038
30
0.0
0
VERTEX
8
0
70
32
10
-13141352.5101
20
4022953.59318
30
0.0
0
VERTEX
8
0
70
32
10
-13141049.3098
20
4022890.11055
30
0.0
0
VERTEX
8
0
70
32
10
-13141038.2689
20
4022895.74204
30
0.0
0
VERTEX
8
0
70
32
10
-13140619.8945
20
4022810.60293
30
0.0
0
VERTEX
8
0
70
32
10
-13139883.4057
20
4022658.06515
30
0.0
0
VERTEX
8
0
70
32
10
-13139749.8801
20
4022619.80129
30
0.0
0
VERTEX
8
0
70
32
10
-13139548.5221
20
4022532.32325
30
0.0
0
VERTEX
8
0
70
32
10
-13139104.7868
20
4022284.88276
30
0.0
0
VERTEX
8
0
70
32
10
-13138675.9128
20
4022039.43794
30
0.0
0
VERTEX
8
0
70
32
10
-13138158.7717
20
4021743.86661
30
0.0
0
VERTEX
8
0
70
32
10
-13137722.7034
20
4021495.2959
30
0.0
0
VERTEX
8
0
70
32
10
-13137487.5471
20
4021361.25385
30
0.0
0
VERTEX
8
0
70
32
10
-13137173.8227
20
4021182.64795
30
0.0
0
VERTEX
8
0
70
32
10
-13136776.9468
20
4020955.62322
30
0.0
0
VERTEX
8
0
70
32
10
-13136323.587
20
4020695.44438
30
0.0
0
VERTEX
8
0
70
32
10
-13135681.0508
20
4020323.15491
30
0.0
0
VERTEX
8
0
70
32
10
-13135164.7173
20
4020029.94533
30
0.0
0
VERTEX
8
0
70
32
10
-13134570.8387
20
4019691.08574
30
0.0
0
VERTEX
8
0
70
32
10
-13134489.6622
20
4019650.29813
30
0.0
0
VERTEX
8
0
70
32
10
-13133988.3068
20
4019363.96347
30
0.0
0
VERTEX
8
0
70
32
10
-13133873.6268
20
4019300.96811
30
0.0
0
VERTEX
8
0
70
32
10
-13133770.5751
20
4019254.2681
30
0.0
0
VERTEX
8
0
70
32
10
-13133719.0703
20
4019236.49686
30
0.0
0
VERTEX
8
0
70
32
10
-13133654.5796
20
4019217.26152
30
0.0
0
VERTEX
8
0
70
32
10
-13133546.9037
20
4019196.56025
30
0.0
0
VERTEX
8
0
70
32
10
-13133436.1471
20
4019185.49414
30
0.0
0
VERTEX
8
0
70
32
10
-13133307.6608
20
4019184.41307
30
0.0
0
VERTEX
8
0
70
32
10
-13132827.4195
20
4019182.60781
30
0.0
0
VERTEX
8
0
70
32
10
-13132205.6532
20
4019184.58475
30
0.0
0
VERTEX
8
0
70
32
10
-13132179.2156
20
4019184.66687
30
0.0
0
VERTEX
8
0
70
32
10
-13132148.6408
20
4019190.80837
30
0.0
0
VERTEX
8
0
70
32
10
-13131622.0744
20
4019191.832
30
0.0
0
VERTEX
8
0
70
32
10
-13131150.7017
20
4019189.8094
30
0.0
0
VERTEX
8
0
70
32
10
-13130929.077
20
4019190.87242
30
0.0
0
VERTEX
8
0
70
32
10
-13130339.6402
20
4019193.67704
30
0.0
0
VERTEX
8
0
70
32
10
-13129904.7889
20
4019194.90284
30
0.0
0
VERTEX
8
0
70
32
10
-13129904.789
20
4019152.93614
30
0.0
0
VERTEX
8
0
70
32
10
-13129183.128
20
4019154.26667
30
0.0
0
VERTEX
8
0
70
32
10
-13129060.5843
20
4019154.47162
30
0.0
0
VERTEX
8
0
70
32
10
-13129060.5844
20
4019194.90292
30
0.0
0
VERTEX
8
0
70
32
10
-13128680.4278
20
4019194.29549
30
0.0
0
VERTEX
8
0
70
32
10
-13128593.7988
20
4019187.68275
30
0.0
0
VERTEX
8
0
70
32
10
-13128511.6468
20
4019174.84021
30
0.0
0
VERTEX
8
0
70
32
10
-13128408.1455
20
4019150.16096
30
0.0
0
VERTEX
8
0
70
32
10
-13128316.8263
20
4019119.65754
30
0.0
0
VERTEX
8
0
70
32
10
-13128174.7639
20
4019057.23228
30
0.0
0
VERTEX
8
0
70
32
10
-13128164.5723
20
4019058.76774
30
0.0
0
VERTEX
8
0
70
32
10
-13127925.5761
20
4018951.02116
30
0.0
0
VERTEX
8
0
70
32
10
-13127657.4767
20
4018829.84303
30
0.0
0
VERTEX
8
0
70
32
10
-13127254.324
20
4018645.42864
30
0.0
0
VERTEX
8
0
70
32
10
-13126736.8437
20
4018409.42516
30
0.0
0
VERTEX
8
0
70
32
10
-13126422.1839
20
4018267.71303
30
0.0
0
VERTEX
8
0
70
32
10
-13126376.4607
20
4018250.6026
30
0.0
0
VERTEX
8
0
70
32
10
-13126337.9731
20
4018239.35056
30
0.0
0
VERTEX
8
0
70
32
10
-13126296.4957
20
4018229.54798
30
0.0
0
VERTEX
8
0
70
32
10
-13126242.0338
20
4018223.36357
30
0.0
0
VERTEX
8
0
70
32
10
-13125973.0344
20
4018223.2098
30
0.0
0
VERTEX
8
0
70
32
10
-13125211.7573
20
4018246.40147
30
0.0
0
VERTEX
8
0
70
32
10
-13124424.1773
20
4018266.48518
30
0.0
0
VERTEX
8
0
70
32
10
-13124183.9011
20
4018276.27741
30
0.0
0
VERTEX
8
0
70
32
10
-13124168.6136
20
4018265.53072
30
0.0
0
VERTEX
8
0
70
32
10
-13124067.5468
20
4018268.60123
30
0.0
0
VERTEX
8
0
70
32
10
-13124036.972
20
4018281.3949
30
0.0
0
VERTEX
8
0
70
32
10
-13123668.3428
20
4018293.78787
30
0.0
0
VERTEX
8
0
70
32
10
-13123202.1097
20
4018308.51762
30
0.0
0
VERTEX
8
0
70
32
10
-13123172.7231
20
4018303.88012
30
0.0
0
VERTEX
8
0
70
32
10
-13123079.8104
20
4018304.9354
30
0.0
0
VERTEX
8
0
70
32
10
-13123065.3723
20
4018312.09996
30
0.0
0
VERTEX
8
0
70
32
10
-13122611.0149
20
4018324.52686
30
0.0
0
VERTEX
8
0
70
32
10
-13122571.6036
20
4018324.55522
30
0.0
0
VERTEX
8
0
70
32
10
-13122535.197
20
4018320.20742
30
0.0
0
VERTEX
8
0
70
32
10
-13122471.1093
20
4018310.62994
30
0.0
0
VERTEX
8
0
70
32
10
-13122372.0555
20
4018276.11777
30
0.0
0
VERTEX
8
0
70
32
10
-13122230.5099
20
4018210.77386
30
0.0
0
VERTEX
8
0
70
32
10
-13121840.8902
20
4017990.43037
30
0.0
0
VERTEX
8
0
70
32
10
-13121653.8349
20
4017886.84343
30
0.0
0
VERTEX
8
0
70
32
10
-13121611.3699
20
4017899.63669
30
0.0
0
VERTEX
8
0
70
32
10
-13121594.3838
20
4017889.91381
30
0.0
0
VERTEX
8
0
70
32
10
-13121551.9188
20
4017834.13519
30
0.0
0
VERTEX
8
0
70
32
10
-13121498.4129
20
4017803.94322
30
0.0
0
VERTEX
8
0
70
32
10
-13120800.992
20
4017661.84902
30
0.0
0
VERTEX
8
0
70
32
10
-13120487.164
20
4017598.10815
30
0.0
0
VERTEX
8
0
70
32
10
-13119872.3356
20
4017478.2727
30
0.0
0
VERTEX
8
0
70
32
10
-13119574.1512
20
4017419.20709
30
0.0
0
VERTEX
8
0
70
32
10
-13119375.8004
20
4017365.89924
30
0.0
0
VERTEX
8
0
70
32
10
-13118904.3495
20
4017284.30403
30
0.0
0
VERTEX
8
0
70
32
10
-13118159.8128
20
4017142.81058
30
0.0
0
VERTEX
8
0
70
32
10
-13118086.0335
20
4017142.81065
30
0.0
0
VERTEX
8
0
70
32
10
-13117887.2125
20
4016972.80575
30
0.0
0
VERTEX
8
0
70
32
10
-13117578.042
20
4016870.59063
30
0.0
0
VERTEX
8
0
70
32
10
-13117497.3585
20
4016920.22425
30
0.0
0
VERTEX
8
0
70
32
10
-13117393.7438
20
4017206.26144
30
0.0
0
VERTEX
8
0
70
32
10
-13117300.9935
20
4017214.95596
30
0.0
0
VERTEX
8
0
70
32
10
-13117089.6942
20
4017252.31463
30
0.0
0
VERTEX
8
0
70
32
10
-13117051.4757
20
4017242.08054
30
0.0
0
VERTEX
8
0
70
32
10
-13117034.4897
20
4017250.77943
30
0.0
0
VERTEX
8
0
70
32
10
-13117010.2224
20
4017262.12896
30
0.0
0
VERTEX
8
0
70
32
10
-13116986.1114
20
4017270.83898
30
0.0
0
VERTEX
8
0
70
32
10
-13116956.3541
20
4017278.92318
30
0.0
0
VERTEX
8
0
70
32
10
-13116934.2404
20
4017281.29504
30
0.0
0
VERTEX
8
0
70
32
10
-13116913.1474
20
4017282.05111
30
0.0
0
VERTEX
8
0
70
32
10
-13116881.4169
20
4017278.64407
30
0.0
0
VERTEX
8
0
70
32
10
-13116855.2873
20
4017272.78279
30
0.0
0
VERTEX
8
0
70
32
10
-13116823.1355
20
4017259.70702
30
0.0
0
VERTEX
8
0
70
32
10
-13116781.3981
20
4017239.01031
30
0.0
0
VERTEX
8
0
70
32
10
-13116636.1678
20
4017271.24763
30
0.0
0
VERTEX
8
0
70
32
10
-13116563.9772
20
4017266.13059
30
0.0
0
VERTEX
8
0
70
32
10
-13116554.6349
20
4017276.87643
30
0.0
0
VERTEX
8
0
70
32
10
-13116335.5155
20
4017301.43816
30
0.0
0
VERTEX
8
0
70
32
10
-13116275.2151
20
4017378.19427
30
0.0
0
VERTEX
8
0
70
32
10
-13116144.4228
20
4017397.63923
30
0.0
0
VERTEX
8
0
70
32
10
-13116039.9589
20
4017358.74933
30
0.0
0
VERTEX
8
0
70
32
10
-13116035.7124
20
4017272.27105
30
0.0
0
VERTEX
8
0
70
32
10
-13116028.918
20
4017271.75934
30
0.0
0
VERTEX
8
0
70
32
10
-13115960.974
20
4017308.60212
30
0.0
0
VERTEX
8
0
70
32
10
-13115787.7167
20
4017356.19076
30
0.0
0
VERTEX
8
0
70
32
10
-13115769.032
20
4017386.89334
30
0.0
0
VERTEX
8
0
70
32
10
-13115299.5398
20
4017242.67028
30
0.0
0
VERTEX
8
0
70
32
10
-13115081.0986
20
4017175.55956
30
0.0
0
VERTEX
8
0
70
32
10
-13115064.9619
20
4017062.98621
30
0.0
0
VERTEX
8
0
70
32
10
-13114981.7304
20
4016943.25036
30
0.0
0
VERTEX
8
0
70
32
10
-13114800.5373
20
4016935.94363
30
0.0
0
VERTEX
8
0
70
32
10
-13114128.1835
20
4017067.59149
30
0.0
0
VERTEX
8
0
70
32
10
-13113653.103
20
4017016.09033
30
0.0
0
VERTEX
8
0
70
32
10
-13113555.6088
20
4016979.59937
30
0.0
0
VERTEX
8
0
70
32
10
-13113029.2628
20
4016748.10676
30
0.0
0
VERTEX
8
0
70
32
10
-13112635.1133
20
4016587.63214
30
0.0
0
VERTEX
8
0
70
32
10
-13112230.3904
20
4016599.44579
30
0.0
0
VERTEX
8
0
70
32
10
-13111575.0381
20
4016624.19792
30
0.0
0
VERTEX
8
0
70
32
10
-13111266.041
20
4016632.65965
30
0.0
0
VERTEX
8
0
70
32
10
-13110904.0532
20
4016700.79
30
0.0
0
VERTEX
8
0
70
32
10
-13110409.4036
20
4016797.3461
30
0.0
0
VERTEX
8
0
70
32
10
-13110230.7437
20
4016832.21477
30
0.0
0
VERTEX
8
0
70
32
10
-13109495.7762
20
4017204.08711
30
0.0
0
VERTEX
8
0
70
32
10
-13108990.0076
20
4017460.09225
30
0.0
0
VERTEX
8
0
70
32
10
-13108538.0879
20
4017689.82949
30
0.0
0
VERTEX
8
0
70
32
10
-13108184.4842
20
4017727.54582
30
0.0
0
VERTEX
8
0
70
32
10
-13107800.8952
20
4017763.00612
30
0.0
0
VERTEX
8
0
70
32
10
-13107609.1735
20
4017753.6576
30
0.0
0
VERTEX
8
0
70
32
10
-13107243.0176
20
4017739.97742
30
0.0
0
VERTEX
8
0
70
32
10
-13106750.2178
20
4017721.35142
30
0.0
0
VERTEX
8
0
70
32
10
-13106047.939
20
4017690.34132
30
0.0
0
VERTEX
8
0
70
32
10
-13105938.3792
20
4017743.04896
30
0.0
0
VERTEX
8
0
70
32
10
-13105783.8065
20
4017933.4122
30
0.0
0
VERTEX
8
0
70
32
10
-13105753.2318
20
4017947.74072
30
0.0
0
VERTEX
8
0
70
32
10
-13105499.8224
20
4017972.54967
30
0.0
0
VERTEX
8
0
70
32
10
-13105371.6541
20
4017984.15836
30
0.0
0
VERTEX
8
0
70
32
10
-13105128.9959
20
4017986.12084
30
0.0
0
VERTEX
8
0
70
32
10
-13104570.6775
20
4018054.41277
30
0.0
0
VERTEX
8
0
70
32
10
-13104435.9667
20
4018070.55756
30
0.0
0
VERTEX
8
0
70
32
10
-13103997.5615
20
4018029.40822
30
0.0
0
VERTEX
8
0
70
32
10
-13103798.1421
20
4018010.68426
30
0.0
0
VERTEX
8
0
70
32
10
-13103406.7299
20
4018069.88936
30
0.0
0
VERTEX
8
0
70
32
10
-13102918.2668
20
4018138.61928
30
0.0
0
VERTEX
8
0
70
32
10
-13102349.2356
20
4018029.10693
30
0.0
0
VERTEX
8
0
70
32
10
-13102023.1042
20
4017921.64253
30
0.0
0
VERTEX
8
0
70
32
10
-13101559.386
20
4017854.60574
30
0.0
0
VERTEX
8
0
70
32
10
-13101251.9393
20
4017700.06442
30
0.0
0
VERTEX
8
0
70
32
10
-13101051.5043
20
4017681.13071
30
0.0
0
VERTEX
8
0
70
32
10
-13101005.6421
20
4017649.40401
30
0.0
0
VERTEX
8
0
70
32
10
-13100941.2744
20
4017578.30329
30
0.0
0
VERTEX
8
0
70
32
10
-13100847.6722
20
4017474.9086
30
0.0
0
VERTEX
8
0
70
32
10
-13100836.6313
20
4017389.96461
30
0.0
0
VERTEX
8
0
70
32
10
-13100740.6604
20
4017273.2955
30
0.0
0
VERTEX
8
0
70
32
10
-13100685.4559
20
4017145.88203
30
0.0
0
VERTEX
8
0
70
32
10
-13100592.0329
20
4017125.41412
30
0.0
0
VERTEX
8
0
70
32
10
-13100503.7055
20
4016946.83316
30
0.0
0
VERTEX
8
0
70
32
10
-13100467.1856
20
4016897.7111
30
0.0
0
VERTEX
8
0
70
32
10
-13100170.6124
20
4016741.85603
30
0.0
0
VERTEX
8
0
70
32
10
-13100058.6721
20
4016675.64114
30
0.0
0
VERTEX
8
0
70
32
10
-13099970.1367
20
4016427.17832
30
0.0
0
VERTEX
8
0
70
32
10
-13099924.4826
20
4016299.05306
30
0.0
0
VERTEX
8
0
70
32
10
-13099705.3839
20
4016150.31654
30
0.0
0
VERTEX
8
0
70
32
10
-13099558.4341
20
4015906.61645
30
0.0
0
VERTEX
8
0
70
32
10
-13099200.0293
20
4015857.49885
30
0.0
0
VERTEX
8
0
70
32
10
-13098881.31
20
4015513.76592
30
0.0
0
VERTEX
8
0
70
32
10
-13098762.6395
20
4015385.77611
30
0.0
0
VERTEX
8
0
70
32
10
-13098514.6437
20
4015214.38501
30
0.0
0
VERTEX
8
0
70
32
10
-13098307.4145
20
4015185.73477
30
0.0
0
VERTEX
8
0
70
32
10
-13098070.0978
20
4015041.32446
30
0.0
0
VERTEX
8
0
70
32
10
-13097965.9743
20
4014969.37574
30
0.0
0
VERTEX
8
0
70
32
10
-13097696.4352
20
4014828.60404
30
0.0
0
VERTEX
8
0
70
32
10
-13097494.6339
20
4014717.10926
30
0.0
0
VERTEX
8
0
70
32
10
-13097226.9535
20
4014596.74955
30
0.0
0
VERTEX
8
0
70
32
10
-13097007.1354
20
4014472.06062
30
0.0
0
VERTEX
8
0
70
32
10
-13096809.2484
20
4014413.22931
30
0.0
0
VERTEX
8
0
70
32
10
-13096570.6101
20
4014133.02091
30
0.0
0
VERTEX
8
0
70
32
10
-13096403.2827
20
4013943.10078
30
0.0
0
VERTEX
8
0
70
32
10
-13096340.4345
20
4013925.70799
30
0.0
0
VERTEX
8
0
70
32
10
-13096326.8457
20
4013931.84657
30
0.0
0
VERTEX
8
0
70
32
10
-13096284.3807
20
4013915.47691
30
0.0
0
VERTEX
8
0
70
32
10
-13096255.5045
20
4013920.08087
30
0.0
0
VERTEX
8
0
70
32
10
-13096048.0758
20
4013923.10168
30
0.0
0
VERTEX
8
0
70
32
10
-13095587.105
20
4013929.80046
30
0.0
0
VERTEX
8
0
70
32
10
-13095586.2557
20
4013748.20016
30
0.0
0
VERTEX
8
0
70
32
10
-13095508.9693
20
4013667.88768
30
0.0
0
VERTEX
8
0
70
32
10
-13095278.8089
20
4013812.6551
30
0.0
0
VERTEX
8
0
70
32
10
-13095192.8014
20
4013903.94378
30
0.0
0
VERTEX
8
0
70
32
10
-13095129.3321
20
4014024.43837
30
0.0
0
VERTEX
8
0
70
32
10
-13095063.9359
20
4014052.57417
30
0.0
0
VERTEX
8
0
70
32
10
-13095044.402
20
4014029.04236
30
0.0
0
VERTEX
8
0
70
32
10
-13094973.9101
20
4014065.87472
30
0.0
0
VERTEX
8
0
70
32
10
-13094488.9829
20
4013804.51902
30
0.0
0
VERTEX
8
0
70
32
10
-13094204.4438
20
4013651.00683
30
0.0
0
VERTEX
8
0
70
32
10
-13093696.1589
20
4013714.10414
30
0.0
0
VERTEX
8
0
70
32
10
-13093624.6575
20
4013722.97815
30
0.0
0
VERTEX
8
0
70
32
10
-13093247.459
20
4013780.73226
30
0.0
0
VERTEX
8
0
70
32
10
-13092838.2319
20
4013831.1148
30
0.0
0
VERTEX
8
0
70
32
10
-13092350.4462
20
4013889.07474
30
0.0
0
VERTEX
8
0
70
32
10
-13092173.6574
20
4013910.09801
30
0.0
0
VERTEX
8
0
70
32
10
-13092066.9722
20
4013919.59202
30
0.0
0
VERTEX
8
0
70
32
10
-13091613.1503
20
4013921.13013
30
0.0
0
VERTEX
8
0
70
32
10
-13091140.6172
20
4013922.8068
30
0.0
0
VERTEX
8
0
70
32
10
-13090898.1171
20
4013924.68518
30
0.0
0
VERTEX
8
0
70
32
10
-13090746.0924
20
4013904.22307
30
0.0
0
VERTEX
8
0
70
32
10
-13090079.1981
20
4014036.41475
30
0.0
0
VERTEX
8
0
70
32
10
-13089778.6034
20
4014088.56477
30
0.0
0
VERTEX
8
0
70
32
10
-13089586.0217
20
4014101.95027
30
0.0
0
VERTEX
8
0
70
32
10
-13089489.5214
20
4014097.80762
30
0.0
0
VERTEX
8
0
70
32
10
-13089394.865
20
4014088.11546
30
0.0
0
VERTEX
8
0
70
32
10
-13089279.3027
20
4014067.01348
30
0.0
0
VERTEX
8
0
70
32
10
-13089171.296
20
4014039.72737
30
0.0
0
VERTEX
8
0
70
32
10
-13089037.2999
20
4013994.25692
30
0.0
0
VERTEX
8
0
70
32
10
-13088722.9689
20
4013891.33611
30
0.0
0
VERTEX
8
0
70
32
10
-13088691.6345
20
4013881.20336
30
0.0
0
VERTEX
8
0
70
32
10
-13088678.895
20
4013867.39149
30
0.0
0
VERTEX
8
0
70
32
10
-13088661.0598
20
4013861.2528
30
0.0
0
VERTEX
8
0
70
32
10
-13088645.7723
20
4013866.36836
30
0.0
0
VERTEX
8
0
70
32
10
-13088366.675
20
4013772.97668
30
0.0
0
VERTEX
8
0
70
32
10
-13088347.6678
20
4013766.61626
30
0.0
0
VERTEX
8
0
70
32
10
-13088013.0434
20
4013625.43019
30
0.0
0
VERTEX
8
0
70
32
10
-13088008.797
20
4013621.33793
30
0.0
0
VERTEX
8
0
70
32
10
-13087984.1672
20
4013611.61859
30
0.0
0
VERTEX
8
0
70
32
10
-13087968.0305
20
4013616.22245
30
0.0
0
VERTEX
8
0
70
32
10
-13087410.106
20
4013714.65972
30
0.0
0
VERTEX
8
0
70
32
10
-13087260.5633
20
4013741.03901
30
0.0
0
VERTEX
8
0
70
32
10
-13087148.3485
20
4013727.52208
30
0.0
0
VERTEX
8
0
70
32
10
-13086788.3974
20
4013747.90872
30
0.0
0
VERTEX
8
0
70
32
10
-13086270.6406
20
4013777.26144
30
0.0
0
VERTEX
8
0
70
32
10
-13085966.2294
20
4013796.28617
30
0.0
0
VERTEX
8
0
70
32
10
-13085915.2714
20
4013728.2505
30
0.0
0
VERTEX
8
0
70
32
10
-13085786.1777
20
4013787.07833
30
0.0
0
VERTEX
8
0
70
32
10
-13085765.7945
20
4013810.09802
30
0.0
0
VERTEX
8
0
70
32
10
-13085453.2519
20
4013840.79108
30
0.0
0
VERTEX
8
0
70
32
10
-13085441.3617
20
4013857.67221
30
0.0
0
VERTEX
8
0
70
32
10
-13085392.9516
20
4013861.25299
30
0.0
0
VERTEX
8
0
70
32
10
-13085377.6641
20
4013851.53356
30
0.0
0
VERTEX
8
0
70
32
10
-13084910.989
20
4013909.51211
30
0.0
0
VERTEX
8
0
70
32
10
-13084443.4089
20
4013981.28065
30
0.0
0
VERTEX
8
0
70
32
10
-13083841.3433
20
4014076.52213
30
0.0
0
VERTEX
8
0
70
32
10
-13083715.6694
20
4014098.74138
30
0.0
0
VERTEX
8
0
70
32
10
-13083299.7028
20
4014180.00731
30
0.0
0
VERTEX
8
0
70
32
10
-13083059.8533
20
4014230.79524
30
0.0
0
VERTEX
8
0
70
32
10
-13082546.0965
20
4014339.56361
30
0.0
0
VERTEX
8
0
70
32
10
-13082236.5438
20
4014407.29173
30
0.0
0
VERTEX
8
0
70
32
10
-13082164.7605
20
4014421.92703
30
0.0
0
VERTEX
8
0
70
32
10
-13081862.0352
20
4014382.21124
30
0.0
0
VERTEX
8
0
70
32
10
-13081490.7137
20
4014332.85041
30
0.0
0
VERTEX
8
0
70
32
10
-13081251.2026
20
4014299.32419
30
0.0
0
VERTEX
8
0
70
32
10
-13080900.1522
20
4014245.94629
30
0.0
0
VERTEX
8
0
70
32
10
-13080835.6053
20
4014175.86167
30
0.0
0
VERTEX
8
0
70
32
10
-13080699.7173
20
4014255.15455
30
0.0
0
VERTEX
8
0
70
32
10
-13080060.8229
20
4014313.97199
30
0.0
0
VERTEX
8
0
70
32
10
-13079630.448
20
4014342.63313
30
0.0
0
VERTEX
8
0
70
32
10
-13079577.7914
20
4014322.17035
30
0.0
0
VERTEX
8
0
70
32
10
-13079397.7397
20
4014363.09607
30
0.0
0
VERTEX
8
0
70
32
10
-13079044.4307
20
4014484.3397
30
0.0
0
VERTEX
8
0
70
32
10
-13078962.8978
20
4014461.31871
30
0.0
0
VERTEX
8
0
70
32
10
-13078863.5296
20
4014401.4642
30
0.0
0
VERTEX
8
0
70
32
10
-13078635.6426
20
4014439.14262
30
0.0
0
VERTEX
8
0
70
32
10
-13078286.8546
20
4014496.61767
30
0.0
0
VERTEX
8
0
70
32
10
-13077960.9498
20
4014527.10381
30
0.0
0
VERTEX
8
0
70
32
10
-13077548.6534
20
4014566.73875
30
0.0
0
VERTEX
8
0
70
32
10
-13077353.699
20
4014580.92144
30
0.0
0
VERTEX
8
0
70
32
10
-13076960.2433
20
4014629.57681
30
0.0
0
VERTEX
8
0
70
32
10
-13076482.9405
20
4014689.99657
30
0.0
0
VERTEX
8
0
70
32
10
-13076307.1354
20
4014683.34585
30
0.0
0
VERTEX
8
0
70
32
10
-13076265.5195
20
4014675.16049
30
0.0
0
VERTEX
8
0
70
32
10
-13075935.2036
20
4014729.22717
30
0.0
0
VERTEX
8
0
70
32
10
-13075659.1191
20
4014774.40893
30
0.0
0
VERTEX
8
0
70
32
10
-13075645.5303
20
4014786.17554
30
0.0
0
VERTEX
8
0
70
32
10
-13075399.2332
20
4014664.92879
30
0.0
0
VERTEX
8
0
70
32
10
-13075103.9096
20
4014645.79606
30
0.0
0
VERTEX
8
0
70
32
10
-13074949.1039
20
4014616.83974
30
0.0
0
VERTEX
8
0
70
32
10
-13074887.9542
20
4014527.31272
30
0.0
0
VERTEX
8
0
70
32
10
-13074864.1739
20
4014524.24321
30
0.0
0
VERTEX
8
0
70
32
10
-13074533.0711
20
4014748.12192
30
0.0
0
VERTEX
8
0
70
32
10
-13074473.6813
20
4014783.1277
30
0.0
0
VERTEX
8
0
70
32
10
-13074433.7042
20
4014797.16864
30
0.0
0
VERTEX
8
0
70
32
10
-13074351.4168
20
4014801.16755
30
0.0
0
VERTEX
8
0
70
32
10
-13074322.6564
20
4014804.71037
30
0.0
0
VERTEX
8
0
70
32
10
-13074296.7794
20
4014812.06466
30
0.0
0
VERTEX
8
0
70
32
10
-13074267.1156
20
4014811.2437
30
0.0
0
VERTEX
8
0
70
32
10
-13074112.7738
20
4014582.67549
30
0.0
0
VERTEX
8
0
70
32
10
-13074034.4073
20
4014463.87697
30
0.0
0
VERTEX
8
0
70
32
10
-13073711.2048
20
4014682.94934
30
0.0
0
VERTEX
8
0
70
32
10
-13073627.5924
20
4014739.62093
30
0.0
0
VERTEX
8
0
70
32
10
-13073622.9236
20
4014744.47475
30
0.0
0
VERTEX
8
0
70
32
10
-13073544.6239
20
4014618.01334
30
0.0
0
VERTEX
8
0
70
32
10
-13073318.447
20
4014299.66156
30
0.0
0
VERTEX
8
0
70
32
10
-13072909.0842
20
4014575.91312
30
0.0
0
VERTEX
8
0
70
32
10
-13072740.0307
20
4014336.44681
30
0.0
0
VERTEX
8
0
70
32
10
-13072541.0275
20
4014036.19187
30
0.0
0
VERTEX
8
0
70
32
10
-13072441.9689
20
4013891.43549
30
0.0
0
VERTEX
8
0
70
32
10
-13072359.5868
20
4013950.26413
30
0.0
0
VERTEX
8
0
70
32
10
-13072269.5609
20
4013965.61078
30
0.0
0
VERTEX
8
0
70
32
10
-13071810.696
20
4013969.09787
30
0.0
0
VERTEX
8
0
70
32
10
-13071200.5101
20
4013974.28247
30
0.0
0
VERTEX
8
0
70
32
10
-13070467.3343
20
4013983.94161
30
0.0
0
VERTEX
8
0
70
32
10
-13070287.2364
20
4013987.94871
30
0.0
0
VERTEX
8
0
70
32
10
-13069829.5206
20
4013972.77281
30
0.0
0
VERTEX
8
0
70
32
10
-13069670.7015
20
4013952.3106
30
0.0
0
VERTEX
8
0
70
32
10
-13069595.1138
20
4014006.02394
30
0.0
0
VERTEX
8
0
70
32
10
-13069520.6762
20
4014034.02038
30
0.0
0
VERTEX
8
0
70
32
10
-13069315.6939
20
4014006.53558
30
0.0
0
VERTEX
8
0
70
32
10
-13069236.7089
20
4013957.42614
30
0.0
0
VERTEX
8
0
70
32
10
-13069165.3677
20
4013949.75277
30
0.0
0
VERTEX
8
0
70
32
10
-13069022.6852
20
4013899.10899
30
0.0
0
VERTEX
8
0
70
32
10
-13068686.3623
20
4013937.47552
30
0.0
0
VERTEX
8
0
70
32
10
-13068201.5323
20
4014156.12642
30
0.0
0
VERTEX
8
0
70
32
10
-13067690.5362
20
4014331.6545
30
0.0
0
VERTEX
8
0
70
32
10
-13067180.2586
20
4014506.97055
30
0.0
0
VERTEX
8
0
70
32
10
-13066832.2456
20
4014626.25247
30
0.0
0
VERTEX
8
0
70
32
10
-13066574.0833
20
4014696.14389
30
0.0
0
VERTEX
8
0
70
32
10
-13066061.7297
20
4014834.04273
30
0.0
0
VERTEX
8
0
70
32
10
-13065369.9158
20
4015014.37965
30
0.0
0
VERTEX
8
0
70
32
10
-13064967.2756
20
4015123.32071
30
0.0
0
VERTEX
8
0
70
32
10
-13064955.3854
20
4015139.6922
30
0.0
0
VERTEX
8
0
70
32
10
-13064850.9215
20
4015166.80741
30
0.0
0
VERTEX
8
0
70
32
10
-13064834.7847
20
4015161.17972
30
0.0
0
VERTEX
8
0
70
32
10
-13064144.6629
20
4015343.19271
30
0.0
0
VERTEX
8
0
70
32
10
-13063649.9301
20
4015505.11115
30
0.0
0
VERTEX
8
0
70
32
10
-13063504.7802
20
4015555.63736
30
0.0
0
VERTEX
8
0
70
32
10
-13062740.0023
20
4015733.67298
30
0.0
0
VERTEX
8
0
70
32
10
-13062434.4681
20
4015808.27448
30
0.0
0
VERTEX
8
0
70
32
10
-13061905.0056
20
4015930.24976
30
0.0
0
VERTEX
8
0
70
32
10
-13061318.805
20
4016102.56928
30
0.0
0
VERTEX
8
0
70
32
10
-13060542.6772
20
4016334.66381
30
0.0
0
VERTEX
8
0
70
32
10
-13059834.3686
20
4016549.70193
30
0.0
0
VERTEX
8
0
70
32
10
-13059298.1951
20
4016712.99636
30
0.0
0
VERTEX
8
0
70
32
10
-13058823.1989
20
4016749.74995
30
0.0
0
VERTEX
8
0
70
32
10
-13058336.2135
20
4016781.3236
30
0.0
0
VERTEX
8
0
70
32
10
-13057443.2409
20
4016986.15558
30
0.0
0
VERTEX
8
0
70
32
10
-13057237.8721
20
4016974.30926
30
0.0
0
VERTEX
8
0
70
32
10
-13056747.7458
20
4016932.50878
30
0.0
0
VERTEX
8
0
70
32
10
-13056558.3519
20
4016916.13485
30
0.0
0
VERTEX
8
0
70
32
10
-13056549.8589
20
4016921.76333
30
0.0
0
VERTEX
8
0
70
32
10
-13056333.2873
20
4016906.92442
30
0.0
0
VERTEX
8
0
70
32
10
-13056322.2464
20
4016912.04134
30
0.0
0
VERTEX
8
0
70
32
10
-13056218.7673
20
4016905.86019
30
0.0
0
VERTEX
8
0
70
32
10
-13055893.3496
20
4016971.90898
30
0.0
0
VERTEX
8
0
70
32
10
-13055676.3424
20
4017052.56855
30
0.0
0
VERTEX
8
0
70
32
10
-13055246.1827
20
4017211.38259
30
0.0
0
VERTEX
8
0
70
32
10
-13054505.8424
20
4017212.83245
30
0.0
0
VERTEX
8
0
70
32
10
-13053600.6208
20
4017215.53028
30
0.0
0
VERTEX
8
0
70
32
10
-13052785.7908
20
4017216.34759
30
0.0
0
VERTEX
8
0
70
32
10
-13051736.4312
20
4017221.11541
30
0.0
0
VERTEX
8
0
70
32
10
-13051555.9722
20
4017221.61683
30
0.0
0
VERTEX
8
0
70
32
10
-13051536.4383
20
4017245.1551
30
0.0
0
VERTEX
8
0
70
32
10
-13051499.9183
20
4017245.15517
30
0.0
0
VERTEX
8
0
70
32
10
-13051499.9183
20
4017219.57006
30
0.0
0
VERTEX
8
0
70
32
10
-13050641.8389
20
4017220.9071
30
0.0
0
VERTEX
8
0
70
32
10
-13049731.1156
20
4017218.75352
30
0.0
0
VERTEX
8
0
70
32
10
-13049627.2108
20
4017218.03507
30
0.0
0
VERTEX
8
0
70
32
10
-13049620.4164
20
4017224.17554
30
0.0
0
VERTEX
8
0
70
32
10
-13049613.622
20
4017222.12868
30
0.0
0
VERTEX
8
0
70
32
10
-13048742.1679
20
4017223.67607
30
0.0
0
VERTEX
8
0
70
32
10
-13047895.1762
20
4017225.17833
30
0.0
0
VERTEX
8
0
70
32
10
-13046919.9106
20
4017226.14341
30
0.0
0
VERTEX
8
0
70
32
10
-13045974.8825
20
4017227.00276
30
0.0
0
VERTEX
8
0
70
32
10
-13045131.4442
20
4017228.56272
30
0.0
0
VERTEX
8
0
70
32
10
-13044071.7398
20
4017229.71882
30
0.0
0
VERTEX
8
0
70
32
10
-13043099.847
20
4017230.1952
30
0.0
0
VERTEX
8
0
70
32
10
-13042150.0222
20
4017230.44531
30
0.0
0
VERTEX
8
0
70
32
10
-13041179.7354
20
4017228.07828
30
0.0
0
VERTEX
8
0
70
32
10
-13040847.1427
20
4017227.24634
30
0.0
0
VERTEX
8
0
70
32
10
-13040255.1803
20
4017335.72764
30
0.0
0
VERTEX
8
0
70
32
10
-13039180.437
20
4017371.26086
30
0.0
0
VERTEX
8
0
70
32
10
-13038147.1192
20
4017405.92085
30
0.0
0
VERTEX
8
0
70
32
10
-13037873.4165
20
4017416.86473
30
0.0
0
VERTEX
8
0
70
32
10
-13037867.7967
20
4017417.08936
30
0.0
0
VERTEX
8
0
70
32
10
-13037864.3994
20
4017420.67135
30
0.0
0
VERTEX
8
0
70
32
10
-13037860.153
20
4017417.08936
30
0.0
0
VERTEX
8
0
70
32
10
-13037802.4005
20
4017417.60111
30
0.0
0
VERTEX
8
0
70
32
10
-13037799.8526
20
4017420.15969
30
0.0
0
VERTEX
8
0
70
32
10
-13037230.0564
20
4017435.38327
30
0.0
0
VERTEX
8
0
70
32
10
-13036306.6754
20
4017466.30748
30
0.0
0
VERTEX
8
0
70
32
10
-13035744.7093
20
4017484.64096
30
0.0
0
VERTEX
8
0
70
32
10
-13035364.0251
20
4017496.85743
30
0.0
0
VERTEX
8
0
70
32
10
-13034851.0775
20
4017513.9022
30
0.0
0
VERTEX
8
0
70
32
10
-13034554.6755
20
4017515.85016
30
0.0
0
VERTEX
8
0
70
32
10
-13034108.0706
20
4017519.05266
30
0.0
0
VERTEX
8
0
70
32
10
-13033663.7593
20
4017524.03769
30
0.0
0
VERTEX
8
0
70
32
10
-13033475.5876
20
4017502.44248
30
0.0
0
VERTEX
8
0
70
32
10
-13033246.7528
20
4017454.44463
30
0.0
0
VERTEX
8
0
70
32
10
-13033014.0445
20
4017482.07716
30
0.0
0
VERTEX
8
0
70
32
10
-13032879.8551
20
4017425.27717
30
0.0
0
VERTEX
8
0
70
32
10
-13032793.8706
20
4017429.99669
30
0.0
0
VERTEX
8
0
70
32
10
-13032645.4481
20
4017469.79608
30
0.0
0
VERTEX
8
0
70
32
10
-13032573.2576
20
4017463.65552
30
0.0
0
VERTEX
8
0
70
32
10
-13032458.6021
20
4017431.92934
30
0.0
0
VERTEX
8
0
70
32
10
-13032385.5622
20
4017449.83929
30
0.0
0
VERTEX
8
0
70
32
10
-13032202.9625
20
4017378.19991
30
0.0
0
VERTEX
8
0
70
32
10
-13031875.9499
20
4017569.58225
30
0.0
0
VERTEX
8
0
70
32
10
-13031771.0982
20
4017633.31246
30
0.0
0
VERTEX
8
0
70
32
10
-13031660.2596
20
4017686.25254
30
0.0
0
VERTEX
8
0
70
32
10
-13031538.8096
20
4017663.22508
30
0.0
0
VERTEX
8
0
70
32
10
-13031308.1439
20
4017678.59569
30
0.0
0
VERTEX
8
0
70
32
10
-13030636.2861
20
4017786.49988
30
0.0
0
VERTEX
8
0
70
32
10
-13030382.0624
20
4017829.02404
30
0.0
0
VERTEX
8
0
70
32
10
-13030179.9289
20
4017828.00068
30
0.0
0
VERTEX
8
0
70
32
10
-13030094.9989
20
4017883.77922
30
0.0
0
VERTEX
8
0
70
32
10
-13029786.7773
20
4017960.77753
30
0.0
0
VERTEX
8
0
70
32
10
-13029766.3196
20
4017966.67995
30
0.0
0
VERTEX
8
0
70
32
10
-13029530.2141
20
4018078.23874
30
0.0
0
VERTEX
8
0
70
32
10
-13029372.2442
20
4018171.88749
30
0.0
0
VERTEX
8
0
70
32
10
-13029270.3281
20
4018194.40431
30
0.0
0
VERTEX
8
0
70
32
10
-13029140.3852
20
4018129.41286
30
0.0
0
VERTEX
8
0
70
32
10
-13029081.8809
20
4018080.18278
30
0.0
0
VERTEX
8
0
70
32
10
-13028966.2786
20
4017960.02742
30
0.0
0
VERTEX
8
0
70
32
10
-13028732.4853
20
4017921.05991
30
0.0
0
VERTEX
8
0
70
32
10
-13028565.4088
20
4017901.68989
30
0.0
0
VERTEX
8
0
70
32
10
-13028480.4787
20
4017922.15923
30
0.0
0
VERTEX
8
0
70
32
10
-13028188.9746
20
4017920.33485
30
0.0
0
VERTEX
8
0
70
32
10
-13028153.4981
20
4017920.11225
30
0.0
0
VERTEX
8
0
70
32
10
-13028026.9683
20
4017941.6269
30
0.0
0
VERTEX
8
0
70
32
10
-13027409.4379
20
4017981.50931
30
0.0
0
VERTEX
8
0
70
32
10
-13027322.8822
20
4017990.21992
30
0.0
0
VERTEX
8
0
70
32
10
-13027106.3106
20
4017993.80211
30
0.0
0
VERTEX
8
0
70
32
10
-13026765.068
20
4018027.65649
30
0.0
0
VERTEX
8
0
70
32
10
-13025919.3047
20
4018106.31183
30
0.0
0
VERTEX
8
0
70
32
10
-13025610.5823
20
4018130.42561
30
0.0
0
VERTEX
8
0
70
32
10
-13025008.0658
20
4018180.21962
30
0.0
0
VERTEX
8
0
70
32
10
-13024830.0617
20
4018196.25442
30
0.0
0
VERTEX
8
0
70
32
10
-13024702.241
20
4018205.12613
30
0.0
0
VERTEX
8
0
70
32
10
-13024503.1248
20
4018213.90466
30
0.0
0
VERTEX
8
0
70
32
10
-13023983.8613
20
4018213.76491
30
0.0
0
VERTEX
8
0
70
32
10
-13023431.9495
20
4018199.9357
30
0.0
0
VERTEX
8
0
70
32
10
-13023260.678
20
4018195.42813
30
0.0
0
VERTEX
8
0
70
32
10
-13023101.8589
20
4018287.54265
30
0.0
0
VERTEX
8
0
70
32
10
-13022137.0536
20
4018284.47229
30
0.0
0
VERTEX
8
0
70
32
10
-13022118.369
20
4018272.19023
30
0.0
0
VERTEX
8
0
70
32
10
-13022086.0956
20
4018272.19022
30
0.0
0
VERTEX
8
0
70
32
10
-13022059.7673
20
4018287.54275
30
0.0
0
VERTEX
8
0
70
32
10
-13020780.435
20
4018292.37506
30
0.0
0
VERTEX
8
0
70
32
10
-13020390.0425
20
4018290.10163
30
0.0
0
VERTEX
8
0
70
32
10
-13020352.6733
20
4018303.91884
30
0.0
0
VERTEX
8
0
70
32
10
-13019615.9324
20
4018303.76847
30
0.0
0
VERTEX
8
0
70
32
10
-13019245.3151
20
4018312.33702
30
0.0
0
VERTEX
8
0
70
32
10
-13018468.9571
20
4018313.88129
30
0.0
0
VERTEX
8
0
70
32
10
-13018316.305
20
4018336.04859
30
0.0
0
VERTEX
8
0
70
32
10
-13018226.0778
20
4018363.3986
30
0.0
0
VERTEX
8
0
70
32
10
-13017936.441
20
4018361.28773
30
0.0
0
VERTEX
8
0
70
32
10
-13017292.7333
20
4018348.98605
30
0.0
0
VERTEX
8
0
70
32
10
-13016392.4733
20
4018326.13801
30
0.0
0
VERTEX
8
0
70
32
10
-13015463.2505
20
4018302.38389
30
0.0
0
VERTEX
8
0
70
32
10
-13015346.0471
20
4018334.11247
30
0.0
0
VERTEX
8
0
70
32
10
-13014545.1567
20
4018282.9375
30
0.0
0
VERTEX
8
0
70
32
10
-13013743.394
20
4018282.42613
30
0.0
0
VERTEX
8
0
70
32
10
-13012963.4048
20
4018280.3071
30
0.0
0
VERTEX
8
0
70
32
10
-13012111.9109
20
4018284.9847
30
0.0
0
VERTEX
8
0
70
32
10
-13011013.2396
20
4018294.29861
30
0.0
0
VERTEX
8
0
70
32
10
-13010648.5662
20
4018300.33726
30
0.0
0
VERTEX
8
0
70
32
10
-13010629.8816
20
4018304.43124
30
0.0
0
VERTEX
8
0
70
32
10
-13009928.07
20
4018301.03701
30
0.0
0
VERTEX
8
0
70
32
10
-13009254.2645
20
4018301.81439
30
0.0
0
VERTEX
8
0
70
32
10
-13008391.6956
20
4018296.7738
30
0.0
0
VERTEX
8
0
70
32
10
-13007867.0926
20
4018291.80545
30
0.0
0
VERTEX
8
0
70
32
10
-13007090.6023
20
4018284.09813
30
0.0
0
VERTEX
8
0
70
32
10
-13006751.1819
20
4018283.0244
30
0.0
0
VERTEX
8
0
70
32
10
-13006172.1325
20
4018319.13264
30
0.0
0
VERTEX
8
0
70
32
10
-13005400.2338
20
4018363.66196
30
0.0
0
VERTEX
8
0
70
32
10
-13004779.6242
20
4018399.97365
30
0.0
0
VERTEX
8
0
70
32
10
-13004244.5715
20
4018416.4803
30
0.0
0
VERTEX
8
0
70
32
10
-13003476.0084
20
4018447.20638
30
0.0
0
VERTEX
8
0
70
32
10
-13003322.5004
20
4018454.37547
30
0.0
0
VERTEX
8
0
70
32
10
-13003190.0096
20
4018577.19779
30
0.0
0
VERTEX
8
0
70
32
10
-13003042.2313
20
4018472.79874
30
0.0
0
VERTEX
8
0
70
32
10
-13002383.3448
20
4018495.28647
30
0.0
0
VERTEX
8
0
70
32
10
-13001807.1992
20
4018511.33079
30
0.0
0
VERTEX
8
0
70
32
10
-13001151.488
20
4018529.05154
30
0.0
0
VERTEX
8
0
70
32
10
-13000741.813
20
4018545.0352
30
0.0
0
VERTEX
8
0
70
32
10
-13000118.5326
20
4018563.71987
30
0.0
0
VERTEX
8
0
70
32
10
-12999447.6367
20
4018594.47614
30
0.0
0
VERTEX
8
0
70
32
10
-12998541.239
20
4018622.59322
30
0.0
0
VERTEX
8
0
70
32
10
-12997430.9091
20
4018645.95364
30
0.0
0
VERTEX
8
0
70
32
10
-12996912.6346
20
4018660.72373
30
0.0
0
VERTEX
8
0
70
32
10
-12996316.9868
20
4018688.84231
30
0.0
0
VERTEX
8
0
70
32
10
-12995672.1569
20
4018714.59624
30
0.0
0
VERTEX
8
0
70
32
10
-12995350.117
20
4018730.21613
30
0.0
0
VERTEX
8
0
70
32
10
-12995069.8479
20
4018799.30518
30
0.0
0
VERTEX
8
0
70
32
10
-12994773.442
20
4018768.59892
30
0.0
0
VERTEX
8
0
70
32
10
-12994675.7724
20
4018738.40457
30
0.0
0
VERTEX
8
0
70
32
10
-12994488.5325
20
4018737.95485
30
0.0
0
VERTEX
8
0
70
32
10
-12993621.7339
20
4018733.65743
30
0.0
0
VERTEX
8
0
70
32
10
-12992811.4966
20
4018732.21567
30
0.0
0
VERTEX
8
0
70
32
10
-12991679.9118
20
4018745.97095
30
0.0
0
VERTEX
8
0
70
32
10
-12990704.6609
20
4018759.15447
30
0.0
0
VERTEX
8
0
70
32
10
-12990613.6497
20
4018759.7341
30
0.0
0
VERTEX
8
0
70
32
10
-12990044.0672
20
4018720.46982
30
0.0
0
VERTEX
8
0
70
32
10
-12989997.8255
20
4018716.91059
30
0.0
0
VERTEX
8
0
70
32
10
-12989894.2108
20
4018740.45194
30
0.0
0
VERTEX
8
0
70
32
10
-12989769.4569
20
4018707.23514
30
0.0
0
VERTEX
8
0
70
32
10
-12989677.6392
20
4018659.5926
30
0.0
0
VERTEX
8
0
70
32
10
-12989595.2571
20
4018644.23971
30
0.0
0
VERTEX
8
0
70
32
10
-12989355.7543
20
4018630.42209
30
0.0
0
VERTEX
8
0
70
32
10
-12989354.9051
20
4018665.22208
30
0.0
0
VERTEX
8
0
70
32
10
-12988836.0758
20
4018625.02883
30
0.0
0
VERTEX
8
0
70
32
10
-12988287.0933
20
4018583.48871
30
0.0
0
VERTEX
8
0
70
32
10
-12988159.09
20
4018574.12813
30
0.0
0
VERTEX
8
0
70
32
10
-12987998.5721
20
4018401.66565
30
0.0
0
VERTEX
8
0
70
32
10
-12987920.4366
20
4018397.05989
30
0.0
0
VERTEX
8
0
70
32
10
-12987586.6448
20
4018276.12698
30
0.0
0
VERTEX
8
0
70
32
10
-12987376.6817
20
4018200.61191
30
0.0
0
VERTEX
8
0
70
32
10
-12986851.4502
20
4017989.41477
30
0.0
0
VERTEX
8
0
70
32
10
-12986366.2166
20
4017792.18258
30
0.0
0
VERTEX
8
0
70
32
10
-12985393.4765
20
4017235.04285
30
0.0
0
VERTEX
8
0
70
32
10
-12985251.6721
20
4017153.88898
30
0.0
0
VERTEX
8
0
70
32
10
-12984867.5093
20
4016935.80252
30
0.0
0
VERTEX
8
0
70
32
10
-12984693.0947
20
4016839.38675
30
0.0
0
VERTEX
8
0
70
32
10
-12984315.7483
20
4016800.71087
30
0.0
0
VERTEX
8
0
70
32
10
-12983958.6885
20
4016764.38764
30
0.0
0
VERTEX
8
0
70
32
10
-12983538.8954
20
4016721.69995
30
0.0
0
VERTEX
8
0
70
32
10
-12982649.6778
20
4017023.59474
30
0.0
0
VERTEX
8
0
70
32
10
-12981893.2232
20
4016896.48514
30
0.0
0
VERTEX
8
0
70
32
10
-12981440.4449
20
4016820.33044
30
0.0
0
VERTEX
8
0
70
32
10
-12980843.9493
20
4016719.72885
30
0.0
0
VERTEX
8
0
70
32
10
-12980452.5374
20
4016653.64704
30
0.0
0
VERTEX
8
0
70
32
10
-12979296.7537
20
4016459.65818
30
0.0
0
VERTEX
8
0
70
32
10
-12978647.0264
20
4016350.30171
30
0.0
0
VERTEX
8
0
70
32
10
-12978070.6561
20
4016252.49647
30
0.0
0
VERTEX
8
0
70
32
10
-12977755.2218
20
4016198.66162
30
0.0
0
VERTEX
8
0
70
32
10
-12977029.3943
20
4016072.89697
30
0.0
0
VERTEX
8
0
70
32
10
-12976473.5242
20
4015976.14841
30
0.0
0
VERTEX
8
0
70
32
10
-12975847.608
20
4015864.90005
30
0.0
0
VERTEX
8
0
70
32
10
-12975583.4245
20
4015817.95446
30
0.0
0
VERTEX
8
0
70
32
10
-12974734.9259
20
4015667.15435
30
0.0
0
VERTEX
8
0
70
32
10
-12974636.3484
20
4015649.80895
30
0.0
0
VERTEX
8
0
70
32
10
-12973916.3211
20
4015518.80636
30
0.0
0
VERTEX
8
0
70
32
10
-12973830.581
20
4015514.44639
30
0.0
0
VERTEX
8
0
70
32
10
-12973375.7195
20
4015490.9544
30
0.0
0
VERTEX
8
0
70
32
10
-12972909.0507
20
4015466.10904
30
0.0
0
VERTEX
8
0
70
32
10
-12972516.6337
20
4015393.84873
30
0.0
0
VERTEX
8
0
70
32
10
-12972341.6239
20
4015357.02176
30
0.0
0
VERTEX
8
0
70
32
10
-12972196.4876
20
4015321.32075
30
0.0
0
VERTEX
8
0
70
32
10
-12971945.0475
20
4015218.28468
30
0.0
0
VERTEX
8
0
70
32
10
-12971717.7454
20
4015075.05162
30
0.0
0
VERTEX
8
0
70
32
10
-12971441.003
20
4014851.10128
30
0.0
0
VERTEX
8
0
70
32
10
-12971318.8006
20
4014757.90137
30
0.0
0
VERTEX
8
0
70
32
10
-12971170.189
20
4014658.25623
30
0.0
0
VERTEX
8
0
70
32
10
-12971036.343
20
4014537.55132
30
0.0
0
VERTEX
8
0
70
32
10
-12970904.7015
20
4014520.66908
30
0.0
0
VERTEX
8
0
70
32
10
-12970743.1459
20
4014421.31292
30
0.0
0
VERTEX
8
0
70
32
10
-12970128.6106
20
4014045.68418
30
0.0
0
VERTEX
8
0
70
32
10
-12969780.8129
20
4013831.55186
30
0.0
0
VERTEX
8
0
70
32
10
-12969270.626
20
4013501.83473
30
0.0
0
VERTEX
8
0
70
32
10
-12968680.5128
20
4013120.57211
30
0.0
0
VERTEX
8
0
70
32
10
-12967940.7258
20
4012642.34034
30
0.0
0
VERTEX
8
0
70
32
10
-12967429.8669
20
4012311.77502
30
0.0
0
VERTEX
8
0
70
32
10
-12967075.5498
20
4012082.18548
30
0.0
0
VERTEX
8
0
70
32
10
-12966771.8239
20
4011885.91186
30
0.0
0
VERTEX
8
0
70
32
10
-12966255.7432
20
4011552.22938
30
0.0
0
VERTEX
8
0
70
32
10
-12965757.787
20
4011230.00983
30
0.0
0
VERTEX
8
0
70
32
10
-12965349.0967
20
4010965.50083
30
0.0
0
VERTEX
8
0
70
32
10
-12965097.0364
20
4010802.45174
30
0.0
0
VERTEX
8
0
70
32
10
-12964745.1806
20
4010577.99819
30
0.0
0
VERTEX
8
0
70
32
10
-12964134.5142
20
4010192.63454
30
0.0
0
VERTEX
8
0
70
32
10
-12963689.8968
20
4009915.62418
30
0.0
0
VERTEX
8
0
70
32
10
-12963466.5277
20
4009778.27702
30
0.0
0
VERTEX
8
0
70
32
10
-12963427.46
20
4009773.67473
30
0.0
0
VERTEX
8
0
70
32
10
-12963090.4111
20
4009608.27103
30
0.0
0
VERTEX
8
0
70
32
10
-12962649.8554
20
4009390.67594
30
0.0
0
VERTEX
8
0
70
32
10
-12962304.2324
20
4009220.25904
30
0.0
0
VERTEX
8
0
70
32
10
-12961682.0948
20
4008881.52611
30
0.0
0
VERTEX
8
0
70
32
10
-12961171.5575
20
4008597.74435
30
0.0
0
VERTEX
8
0
70
32
10
-12960561.3009
20
4008222.68242
30
0.0
0
VERTEX
8
0
70
32
10
-12960234.09
20
4008009.58965
30
0.0
0
VERTEX
8
0
70
32
10
-12960014.1213
20
4007888.41469
30
0.0
0
VERTEX
8
0
70
32
10
-12959712.3714
20
4007785.73198
30
0.0
0
VERTEX
8
0
70
32
10
-12959353.7035
20
4007664.12223
30
0.0
0
VERTEX
8
0
70
32
10
-12958963.235
20
4007532.61617
30
0.0
0
VERTEX
8
0
70
32
10
-12958767.0089
20
4007466.7547
30
0.0
0
VERTEX
8
0
70
32
10
-12958281.9759
20
4007311.43666
30
0.0
0
VERTEX
8
0
70
32
10
-12957973.6284
20
4007207.43913
30
0.0
0
VERTEX
8
0
70
32
10
-12957534.9959
20
4007059.43621
30
0.0
0
VERTEX
8
0
70
32
10
-12957048.4009
20
4006894.72278
30
0.0
0
VERTEX
8
0
70
32
10
-12956625.7681
20
4006752.26571
30
0.0
0
VERTEX
8
0
70
32
10
-12956310.6475
20
4006649.66158
30
0.0
0
VERTEX
8
0
70
32
10
-12956248.7186
20
4006629.47187
30
0.0
0
VERTEX
8
0
70
32
10
-12955703.3905
20
4006449.45004
30
0.0
0
VERTEX
8
0
70
32
10
-12955270.9273
20
4006305.15812
30
0.0
0
VERTEX
8
0
70
32
10
-12954784.1288
20
4006143.02349
30
0.0
0
VERTEX
8
0
70
32
10
-12954698.3681
20
4006141.15543
30
0.0
0
VERTEX
8
0
70
32
10
-12954014.9172
20
4005913.25545
30
0.0
0
VERTEX
8
0
70
32
10
-12953684.8984
20
4005803.46363
30
0.0
0
VERTEX
8
0
70
32
10
-12953159.3984
20
4005628.05171
30
0.0
0
VERTEX
8
0
70
32
10
-12952659.539
20
4005461.27948
30
0.0
0
VERTEX
8
0
70
32
10
-12952199.1487
20
4005307.60234
30
0.0
0
VERTEX
8
0
70
32
10
-12951755.1354
20
4005159.38336
30
0.0
0
VERTEX
8
0
70
32
10
-12951359.9878
20
4005027.72367
30
0.0
0
VERTEX
8
0
70
32
10
-12950875.5679
20
4004866.0771
30
0.0
0
VERTEX
8
0
70
32
10
-12950707.4865
20
4004809.87512
30
0.0
0
VERTEX
8
0
70
32
10
-12950218.2829
20
4004595.20257
30
0.0
0
VERTEX
8
0
70
32
10
-12950186.0161
20
4004580.88366
30
0.0
0
VERTEX
8
0
70
32
10
-12949801.6875
20
4004354.86655
30
0.0
0
VERTEX
8
0
70
32
10
-12949442.7708
20
4004151.00688
30
0.0
0
VERTEX
8
0
70
32
10
-12948845.4067
20
4003801.81454
30
0.0
0
VERTEX
8
0
70
32
10
-12948318.755
20
4003496.8954
30
0.0
0
VERTEX
8
0
70
32
10
-12947838.3287
20
4003218.66089
30
0.0
0
VERTEX
8
0
70
32
10
-12947215.0243
20
4002857.48694
30
0.0
0
VERTEX
8
0
70
32
10
-12946897.7958
20
4002673.79908
30
0.0
0
VERTEX
8
0
70
32
10
-12946354.209
20
4002359.25961
30
0.0
0
VERTEX
8
0
70
32
10
-12945920.5226
20
4002107.1756
30
0.0
0
VERTEX
8
0
70
32
10
-12945462.8853
20
4001841.42959
30
0.0
0
VERTEX
8
0
70
32
10
-12944980.108
20
4001561.05141
30
0.0
0
VERTEX
8
0
70
32
10
-12944582.9098
20
4001330.36278
30
0.0
0
VERTEX
8
0
70
32
10
-12944313.4313
20
4001173.85988
30
0.0
0
VERTEX
8
0
70
32
10
-12943794.7602
20
4000872.68242
30
0.0
0
VERTEX
8
0
70
32
10
-12943591.1221
20
4000754.45191
30
0.0
0
VERTEX
8
0
70
32
10
-12942948.0603
20
4000385.39209
30
0.0
0
VERTEX
8
0
70
32
10
-12942466.3071
20
4000109.87714
30
0.0
0
VERTEX
8
0
70
32
10
-12942022.6637
20
3999854.14937
30
0.0
0
VERTEX
8
0
70
32
10
-12941653.7224
20
3999660.42799
30
0.0
0
VERTEX
8
0
70
32
10
-12941141.531
20
3999386.56424
30
0.0
0
VERTEX
8
0
70
32
10
-12940893.0111
20
3999257.79169
30
0.0
0
VERTEX
8
0
70
32
10
-12940435.4927
20
3999025.41597
30
0.0
0
VERTEX
8
0
70
32
10
-12939675.1044
20
3998639.56255
30
0.0
0
VERTEX
8
0
70
32
10
-12938966.2112
20
3998248.91276
30
0.0
0
VERTEX
8
0
70
32
10
-12938645.5192
20
3998072.46927
30
0.0
0
VERTEX
8
0
70
32
10
-12938010.3815
20
3997682.52388
30
0.0
0
VERTEX
8
0
70
32
10
-12937570.7622
20
3997417.09901
30
0.0
0
VERTEX
8
0
70
32
10
-12937234.2909
20
3997201.80941
30
0.0
0
VERTEX
8
0
70
32
10
-12936818.6502
20
3996953.75215
30
0.0
0
VERTEX
8
0
70
32
10
-12936373.6576
20
3996698.59609
30
0.0
0
VERTEX
8
0
70
32
10
-12935862.6097
20
3996418.53205
30
0.0
0
VERTEX
8
0
70
32
10
-12935358.5797
20
3996140.48916
30
0.0
0
VERTEX
8
0
70
32
10
-12934848.168
20
3995865.14563
30
0.0
0
VERTEX
8
0
70
32
10
-12934515.9264
20
3995692.05861
30
0.0
0
VERTEX
8
0
70
32
10
-12933822.3383
20
3995314.11864
30
0.0
0
VERTEX
8
0
70
32
10
-12933200.743
20
3994972.65148
30
0.0
0
VERTEX
8
0
70
32
10
-12932854.2131
20
3994760.55882
30
0.0
0
VERTEX
8
0
70
32
10
-12932406.3172
20
3994478.19921
30
0.0
0
VERTEX
8
0
70
32
10
-12932056.0222
20
3994249.26255
30
0.0
0
VERTEX
8
0
70
32
10
-12931558.1906
20
3993914.466
30
0.0
0
VERTEX
8
0
70
32
10
-12931333.2436
20
3993762.15979
30
0.0
0
VERTEX
8
0
70
32
10
-12930998.4362
20
3993616.31164
30
0.0
0
VERTEX
8
0
70
32
10
-12930525.5169
20
3993414.70391
30
0.0
0
VERTEX
8
0
70
32
10
-12930103.5541
20
3993234.79751
30
0.0
0
VERTEX
8
0
70
32
10
-12929466.845
20
3992963.29384
30
0.0
0
VERTEX
8
0
70
32
10
-12928832.3296
20
3992691.97904
30
0.0
0
VERTEX
8
0
70
32
10
-12928430.6341
20
3992519.34042
30
0.0
0
VERTEX
8
0
70
32
10
-12927657.221
20
3992188.10053
30
0.0
0
VERTEX
8
0
70
32
10
-12927243.8445
20
3992010.62177
30
0.0
0
VERTEX
8
0
70
32
10
-12926589.6669
20
3991734.16397
30
0.0
0
VERTEX
8
0
70
32
10
-12926446.3686
20
3991673.26101
30
0.0
0
VERTEX
8
0
70
32
10
-12926213.6603
20
3991693.17297
30
0.0
0
VERTEX
8
0
70
32
10
-12925765.433
20
3991504.80595
30
0.0
0
VERTEX
8
0
70
32
10
-12925391.7285
20
3991346.39785
30
0.0
0
VERTEX
8
0
70
32
10
-12924875.0783
20
3991128.37416
30
0.0
0
VERTEX
8
0
70
32
10
-12924370.5029
20
3990916.69211
30
0.0
0
VERTEX
8
0
70
32
10
-12924011.1091
20
3990764.87546
30
0.0
0
VERTEX
8
0
70
32
10
-12923682.446
20
3990627.3243
30
0.0
0
VERTEX
8
0
70
32
10
-12923222.5713
20
3990434.65171
30
0.0
0
VERTEX
8
0
70
32
10
-12922351.5343
20
3990069.40827
30
0.0
0
VERTEX
8
0
70
32
10
-12921871.1771
20
3989868.10777
30
0.0
0
VERTEX
8
0
70
32
10
-12921408.3215
20
3989674.07823
30
0.0
0
VERTEX
8
0
70
32
10
-12920872.7231
20
3989448.7619
30
0.0
0
VERTEX
8
0
70
32
10
-12920303.7958
20
3989209.38869
30
0.0
0
VERTEX
8
0
70
32
10
-12919806.2089
20
3988999.82214
30
0.0
0
VERTEX
8
0
70
32
10
-12919467.0277
20
3988855.05297
30
0.0
0
VERTEX
8
0
70
32
10
-12919208.8819
20
3988739.05523
30
0.0
0
VERTEX
8
0
70
32
10
-12918773.2074
20
3988557.48407
30
0.0
0
VERTEX
8
0
70
32
10
-12918541.2178
20
3988471.32602
30
0.0
0
VERTEX
8
0
70
32
10
-12918167.7053
20
3988314.77491
30
0.0
0
VERTEX
8
0
70
32
10
-12917828.7326
20
3988172.68664
30
0.0
0
VERTEX
8
0
70
32
10
-12917332.3444
20
3987964.59018
30
0.0
0
VERTEX
8
0
70
32
10
-12916653.8727
20
3987680.11473
30
0.0
0
VERTEX
8
0
70
32
10
-12916089.0465
20
3987435.48545
30
0.0
0
VERTEX
8
0
70
32
10
-12915581.3935
20
3987195.59254
30
0.0
0
VERTEX
8
0
70
32
10
-12915211.8217
20
3987020.43126
30
0.0
0
VERTEX
8
0
70
32
10
-12915003.7432
20
3986849.46355
30
0.0
0
VERTEX
8
0
70
32
10
-12914604.5719
20
3986751.47718
30
0.0
0
VERTEX
8
0
70
32
10
-12913970.9936
20
3986494.07802
30
0.0
0
VERTEX
8
0
70
32
10
-12913711.3285
20
3986389.0839
30
0.0
0
VERTEX
8
0
70
32
10
-12913225.9026
20
3986194.72662
30
0.0
0
VERTEX
8
0
70
32
10
-12913017.2975
20
3986109.21694
30
0.0
0
VERTEX
8
0
70
32
10
-12912805.3673
20
3986013.53878
30
0.0
0
VERTEX
8
0
70
32
10
-12912605.3185
20
3985923.21981
30
0.0
0
VERTEX
8
0
70
32
10
-12912514.0053
20
3985910.69665
30
0.0
0
VERTEX
8
0
70
32
10
-12912360.7201
20
3985904.84877
30
0.0
0
VERTEX
8
0
70
32
10
-12912257.1054
20
3985770.63917
30
0.0
0
VERTEX
8
0
70
32
10
-12912087.2453
20
3985780.33484
30
0.0
0
VERTEX
8
0
70
32
10
-12911638.0667
20
3985653.45216
30
0.0
0
VERTEX
8
0
70
32
10
-12911011.1815
20
3985475.17934
30
0.0
0
VERTEX
8
0
70
32
10
-12910904.1697
20
3985390.98235
30
0.0
0
VERTEX
8
0
70
32
10
-12910671.4614
20
3985290.45715
30
0.0
0
VERTEX
8
0
70
32
10
-12910373.3569
20
3985205.75122
30
0.0
0
VERTEX
8
0
70
32
10
-12910090.5398
20
3985281.78235
30
0.0
0
VERTEX
8
0
70
32
10
-12909282.8558
20
3985167.85472
30
0.0
0
VERTEX
8
0
70
32
10
-12909093.5135
20
3985139.9572
30
0.0
0
VERTEX
8
0
70
32
10
-12908318.4478
20
3985026.88058
30
0.0
0
VERTEX
8
0
70
32
10
-12908008.9043
20
3984981.74288
30
0.0
0
VERTEX
8
0
70
32
10
-12907385.6359
20
3984889.36239
30
0.0
0
VERTEX
8
0
70
32
10
-12907073.3966
20
3984843.11613
30
0.0
0
VERTEX
8
0
70
32
10
-12906493.2027
20
3984758.01294
30
0.0
0
VERTEX
8
0
70
32
10
-12905844.8448
20
3984663.00797
30
0.0
0
VERTEX
8
0
70
32
10
-12905488.9498
20
3984610.81897
30
0.0
0
VERTEX
8
0
70
32
10
-12905196.4724
20
3984564.65619
30
0.0
0
VERTEX
8
0
70
32
10
-12904652.7298
20
3984488.27353
30
0.0
0
VERTEX
8
0
70
32
10
-12904364.5402
20
3984445.94553
30
0.0
0
VERTEX
8
0
70
32
10
-12903531.6496
20
3984323.65247
30
0.0
0
VERTEX
8
0
70
32
10
-12903127.1253
20
3984264.84341
30
0.0
0
VERTEX
8
0
70
32
10
-12903084.9035
20
3984259.01458
30
0.0
0
VERTEX
8
0
70
32
10
-12902677.187
20
3984202.86846
30
0.0
0
VERTEX
8
0
70
32
10
-12902362.5317
20
3984135.87051
30
0.0
0
VERTEX
8
0
70
32
10
-12901956.6492
20
3984049.93308
30
0.0
0
VERTEX
8
0
70
32
10
-12901630.7102
20
3983981.44656
30
0.0
0
VERTEX
8
0
70
32
10
-12901144.3842
20
3983880.50232
30
0.0
0
VERTEX
8
0
70
32
10
-12900790.8563
20
3983806.14932
30
0.0
0
VERTEX
8
0
70
32
10
-12900757.5769
20
3983798.49987
30
0.0
0
VERTEX
8
0
70
32
10
-12900288.92
20
3983763.40526
30
0.0
0
VERTEX
8
0
70
32
10
-12900015.8547
20
3983742.24409
30
0.0
0
VERTEX
8
0
70
32
10
-12899874.177
20
3983730.70559
30
0.0
0
VERTEX
8
0
70
32
10
-12899205.175
20
3983675.71411
30
0.0
0
VERTEX
8
0
70
32
10
-12898316.1931
20
3983604.00234
30
0.0
0
VERTEX
8
0
70
32
10
-12897462.7757
20
3983536.58702
30
0.0
0
VERTEX
8
0
70
32
10
-12896970.2615
20
3983496.41986
30
0.0
0
VERTEX
8
0
70
32
10
-12896113.8113
20
3983427.14414
30
0.0
0
VERTEX
8
0
70
32
10
-12895962.5713
20
3983415.12651
30
0.0
0
VERTEX
8
0
70
32
10
-12894892.3824
20
3983330.71225
30
0.0
0
VERTEX
8
0
70
32
10
-12894330.2953
20
3983287.63646
30
0.0
0
VERTEX
8
0
70
32
10
-12893608.3879
20
3983226.70296
30
0.0
0
VERTEX
8
0
70
32
10
-12892961.68
20
3983175.23948
30
0.0
0
VERTEX
8
0
70
32
10
-12892286.2082
20
3983124.30536
30
0.0
0
VERTEX
8
0
70
32
10
-12891651.3773
20
3983075.04209
30
0.0
0
VERTEX
8
0
70
32
10
-12891153.6872
20
3983181.67023
30
0.0
0
VERTEX
8
0
70
32
10
-12891069.6065
20
3983256.66769
30
0.0
0
VERTEX
8
0
70
32
10
-12890383.4749
20
3983404.12038
30
0.0
0
VERTEX
8
0
70
32
10
-12889633.9585
20
3983563.56556
30
0.0
0
VERTEX
8
0
70
32
10
-12889097.8048
20
3983677.78074
30
0.0
0
VERTEX
8
0
70
32
10
-12888362.5949
20
3983836.58261
30
0.0
0
VERTEX
8
0
70
32
10
-12886995.9464
20
3984127.80469
30
0.0
0
VERTEX
8
0
70
32
10
-12886913.9793
20
3984144.94026
30
0.0
0
VERTEX
8
0
70
32
10
-12886381.395
20
3984161.91859
30
0.0
0
VERTEX
8
0
70
32
10
-12886327.9621
20
3984168.41081
30
0.0
0
VERTEX
8
0
70
32
10
-12885955.0033
20
3984169.09941
30
0.0
0
VERTEX
8
0
70
32
10
-12885045.0521
20
3984194.61663
30
0.0
0
VERTEX
8
0
70
32
10
-12884195.3137
20
3984216.09507
30
0.0
0
VERTEX
8
0
70
32
10
-12883523.1161
20
3984233.00268
30
0.0
0
VERTEX
8
0
70
32
10
-12882698.2739
20
3984253.28367
30
0.0
0
VERTEX
8
0
70
32
10
-12882058.5286
20
3984272.49824
30
0.0
0
VERTEX
8
0
70
32
10
-12881329.1655
20
3984366.4217
30
0.0
0
VERTEX
8
0
70
32
10
-12881032.5607
20
3984406.14132
30
0.0
0
VERTEX
8
0
70
32
10
-12880246.9609
20
3984512.82026
30
0.0
0
VERTEX
8
0
70
32
10
-12879777.0654
20
3984576.49586
30
0.0
0
VERTEX
8
0
70
32
10
-12878836.2199
20
3984699.01317
30
0.0
0
VERTEX
8
0
70
32
10
-12878282.5065
20
3984772.42308
30
0.0
0
VERTEX
8
0
70
32
10
-12877355.4618
20
3984895.14931
30
0.0
0
VERTEX
8
0
70
32
10
-12877227.4993
20
3984911.3182
30
0.0
0
VERTEX
8
0
70
32
10
-12876533.0991
20
3984938.81814
30
0.0
0
VERTEX
8
0
70
32
10
-12875973.9719
20
3984958.80383
30
0.0
0
VERTEX
8
0
70
32
10
-12875396.6497
20
3984981.09752
30
0.0
0
VERTEX
8
0
70
32
10
-12875212.3175
20
3984988.37844
30
0.0
0
VERTEX
8
0
70
32
10
-12874593.3439
20
3984988.25918
30
0.0
0
VERTEX
8
0
70
32
10
-12873839.7966
20
3984981.64663
30
0.0
0
VERTEX
8
0
70
32
10
-12873526.1132
20
3984980.11376
30
0.0
0
VERTEX
8
0
70
32
10
-12872598.1442
20
3984975.62234
30
0.0
0
VERTEX
8
0
70
32
10
-12872141.8871
20
3984975.62791
30
0.0
0
VERTEX
8
0
70
32
10
-12871462.8749
20
3984970.77636
30
0.0
0
VERTEX
8
0
70
32
10
-12871354.7948
20
3984969.49894
30
0.0
0
VERTEX
8
0
70
32
10
-12870447.7716
20
3985039.27339
30
0.0
0
VERTEX
8
0
70
32
10
-12869592.4809
20
3985103.28914
30
0.0
0
VERTEX
8
0
70
32
10
-12869169.3137
20
3985134.62888
30
0.0
0
VERTEX
8
0
70
32
10
-12868566.7458
20
3985179.48878
30
0.0
0
VERTEX
8
0
70
32
10
-12867852.6748
20
3985234.16045
30
0.0
0
VERTEX
8
0
70
32
10
-12866823.2225
20
3985308.54316
30
0.0
0
VERTEX
8
0
70
32
10
-12866147.4659
20
3985360.48482
30
0.0
0
VERTEX
8
0
70
32
10
-12865366.5382
20
3985573.10186
30
0.0
0
VERTEX
8
0
70
32
10
-12864588.2857
20
3985786.97738
30
0.0
0
VERTEX
8
0
70
32
10
-12864140.5348
20
3985908.88693
30
0.0
0
VERTEX
8
0
70
32
10
-12863387.3868
20
3986110.91267
30
0.0
0
VERTEX
8
0
70
32
10
-12862988.2979
20
3986219.67997
30
0.0
0
VERTEX
8
0
70
32
10
-12861859.5823
20
3986528.68394
30
0.0
0
VERTEX
8
0
70
32
10
-12860877.4676
20
3986797.45549
30
0.0
0
VERTEX
8
0
70
32
10
-12860506.2086
20
3986898.27357
30
0.0
0
VERTEX
8
0
70
32
10
-12859607.1209
20
3987140.16023
30
0.0
0
VERTEX
8
0
70
32
10
-12859007.4777
20
3987303.71113
30
0.0
0
VERTEX
8
0
70
32
10
-12858226.0028
20
3987514.39711
30
0.0
0
VERTEX
8
0
70
32
10
-12857278.8378
20
3987771.85669
30
0.0
0
VERTEX
8
0
70
32
10
-12856815.9193
20
3987897.81475
30
0.0
0
VERTEX
8
0
70
32
10
-12856239.817
20
3988052.75753
30
0.0
0
VERTEX
8
0
70
32
10
-12855689.0148
20
3988201.74082
30
0.0
0
VERTEX
8
0
70
32
10
-12854837.3381
20
3988433.80205
30
0.0
0
VERTEX
8
0
70
32
10
-12853766.9458
20
3988722.16404
30
0.0
0
VERTEX
8
0
70
32
10
-12852777.8924
20
3988989.91868
30
0.0
0
VERTEX
8
0
70
32
10
-12852194.5766
20
3989147.79335
30
0.0
0
VERTEX
8
0
70
32
10
-12851756.6149
20
3989235.57363
30
0.0
0
VERTEX
8
0
70
32
10
-12850737.5667
20
3989439.36155
30
0.0
0
VERTEX
8
0
70
32
10
-12849691.3502
20
3989648.86984
30
0.0
0
VERTEX
8
0
70
32
10
-12849165.9712
20
3989753.71334
30
0.0
0
VERTEX
8
0
70
32
10
-12848962.9884
20
3989641.40903
30
0.0
0
VERTEX
8
0
70
32
10
-12848693.0697
20
3989714.39591
30
0.0
0
VERTEX
8
0
70
32
10
-12847873.3451
20
3989747.98989
30
0.0
0
VERTEX
8
0
70
32
10
-12847488.4076
20
3989756.87464
30
0.0
0
VERTEX
8
0
70
32
10
-12846629.0507
20
3989769.24144
30
0.0
0
VERTEX
8
0
70
32
10
-12846410.122
20
3989771.91669
30
0.0
0
VERTEX
8
0
70
32
10
-12845560.6907
20
3989784.22235
30
0.0
0
VERTEX
8
0
70
32
10
-12845099.3817
20
3989789.18145
30
0.0
0
VERTEX
8
0
70
32
10
-12844330.9172
20
3989799.59636
30
0.0
0
VERTEX
8
0
70
32
10
-12844106.9986
20
3989802.84186
30
0.0
0
VERTEX
8
0
70
32
10
-12844035.3471
20
3989803.74051
30
0.0
0
VERTEX
8
0
70
32
10
-12843903.409
20
3989802.61594
30
0.0
0
VERTEX
8
0
70
32
10
-12843410.6614
20
3989660.23218
30
0.0
0
VERTEX
8
0
70
32
10
-12842708.0175
20
3989483.48027
30
0.0
0
VERTEX
8
0
70
32
10
-12842372.4167
20
3989398.93799
30
0.0
0
VERTEX
8
0
70
32
10
-12842023.6797
20
3989311.27062
30
0.0
0
VERTEX
8
0
70
32
10
-12841636.3315
20
3989202.45477
30
0.0
0
VERTEX
8
0
70
32
10
-12841185.094
20
3989073.09649
30
0.0
0
VERTEX
8
0
70
32
10
-12840453.2204
20
3988863.58418
30
0.0
0
VERTEX
8
0
70
32
10
-12839771.1824
20
3988670.90748
30
0.0
0
VERTEX
8
0
70
32
10
-12839554.4377
20
3988609.28222
30
0.0
0
VERTEX
8
0
70
32
10
-12839498.3839
20
3988632.76187
30
0.0
0
VERTEX
8
0
70
32
10
-12839040.9149
20
3988517.21075
30
0.0
0
VERTEX
8
0
70
32
10
-12838601.6895
20
3988343.7384
30
0.0
0
VERTEX
8
0
70
32
10
-12838505.8982
20
3988303.9707
30
0.0
0
VERTEX
8
0
70
32
10
-12838221.2023
20
3988212.90903
30
0.0
0
VERTEX
8
0
70
32
10
-12837755.4153
20
3988057.14991
30
0.0
0
VERTEX
8
0
70
32
10
-12837026.1479
20
3987797.17816
30
0.0
0
VERTEX
8
0
70
32
10
-12836766.8381
20
3987702.82068
30
0.0
0
VERTEX
8
0
70
32
10
-12836015.9093
20
3987453.78209
30
0.0
0
VERTEX
8
0
70
32
10
-12835703.4581
20
3987355.6952
30
0.0
0
VERTEX
8
0
70
32
10
-12834870.7738
20
3987090.72109
30
0.0
0
VERTEX
8
0
70
32
10
-12834466.9134
20
3986961.12562
30
0.0
0
VERTEX
8
0
70
32
10
-12833946.8127
20
3986794.23826
30
0.0
0
VERTEX
8
0
70
32
10
-12833500.5709
20
3986651.0274
30
0.0
0
VERTEX
8
0
70
32
10
-12832707.3771
20
3986397.81997
30
0.0
0
VERTEX
8
0
70
32
10
-12832152.5981
20
3986220.10088
30
0.0
0
VERTEX
8
0
70
32
10
-12831389.6611
20
3985977.30345
30
0.0
0
VERTEX
8
0
70
32
10
-12830597.9298
20
3985726.15016
30
0.0
0
VERTEX
8
0
70
32
10
-12830021.7175
20
3985540.76145
30
0.0
0
VERTEX
8
0
70
32
10
-12829143.5581
20
3985275.18781
30
0.0
0
VERTEX
8
0
70
32
10
-12828701.2381
20
3985143.95334
30
0.0
0
VERTEX
8
0
70
32
10
-12828256.4077
20
3985012.03677
30
0.0
0
VERTEX
8
0
70
32
10
-12827509.2484
20
3984792.79131
30
0.0
0
VERTEX
8
0
70
32
10
-12827055.684
20
3984660.17683
30
0.0
0
VERTEX
8
0
70
32
10
-12826974.5989
20
3984636.304
30
0.0
0
VERTEX
8
0
70
32
10
-12826862.4912
20
3984653.1423
30
0.0
0
VERTEX
8
0
70
32
10
-12826298.5557
20
3984478.63805
30
0.0
0
VERTEX
8
0
70
32
10
-12826130.081
20
3984426.50896
30
0.0
0
VERTEX
8
0
70
32
10
-12825382.1872
20
3984197.31182
30
0.0
0
VERTEX
8
0
70
32
10
-12825091.3581
20
3984110.37698
30
0.0
0
VERTEX
8
0
70
32
10
-12824265.6346
20
3983863.55032
30
0.0
0
VERTEX
8
0
70
32
10
-12823683.6752
20
3983690.51847
30
0.0
0
VERTEX
8
0
70
32
10
-12823029.3331
20
3983492.43608
30
0.0
0
VERTEX
8
0
70
32
10
-12822577.9545
20
3983355.17606
30
0.0
0
VERTEX
8
0
70
32
10
-12821827.5267
20
3983127.75889
30
0.0
0
VERTEX
8
0
70
32
10
-12821147.7502
20
3982921.5192
30
0.0
0
VERTEX
8
0
70
32
10
-12820423.2858
20
3982701.54843
30
0.0
0
VERTEX
8
0
70
32
10
-12819944.3993
20
3982556.26539
30
0.0
0
VERTEX
8
0
70
32
10
-12819307.1623
20
3982364.41373
30
0.0
0
VERTEX
8
0
70
32
10
-12818661.7644
20
3982167.12155
30
0.0
0
VERTEX
8
0
70
32
10
-12818074.0588
20
3981987.9858
30
0.0
0
VERTEX
8
0
70
32
10
-12817624.9829
20
3981851.24962
30
0.0
0
VERTEX
8
0
70
32
10
-12816954.0277
20
3981647.4098
30
0.0
0
VERTEX
8
0
70
32
10
-12816502.7695
20
3981510.74057
30
0.0
0
VERTEX
8
0
70
32
10
-12815690.7995
20
3981263.13864
30
0.0
0
VERTEX
8
0
70
32
10
-12815283.1763
20
3981139.10555
30
0.0
0
VERTEX
8
0
70
32
10
-12814440.4016
20
3980882.39304
30
0.0
0
VERTEX
8
0
70
32
10
-12813971.4162
20
3980740.58867
30
0.0
0
VERTEX
8
0
70
32
10
-12813317.2528
20
3980542.00577
30
0.0
0
VERTEX
8
0
70
32
10
-12813049.1234
20
3980460.31005
30
0.0
0
VERTEX
8
0
70
32
10
-12812511.7779
20
3980297.14215
30
0.0
0
VERTEX
8
0
70
32
10
-12812098.6818
20
3980171.40506
30
0.0
0
VERTEX
8
0
70
32
10
-12811340.7617
20
3979940.32134
30
0.0
0
VERTEX
8
0
70
32
10
-12811132.2556
20
3979876.95508
30
0.0
0
VERTEX
8
0
70
32
10
-12810547.6224
20
3979698.75088
30
0.0
0
VERTEX
8
0
70
32
10
-12810170.4816
20
3979583.86516
30
0.0
0
VERTEX
8
0
70
32
10
-12810066.0568
20
3979552.05818
30
0.0
0
VERTEX
8
0
70
32
10
-12809294.5298
20
3979316.91726
30
0.0
0
VERTEX
8
0
70
32
10
-12808974.5244
20
3979219.24008
30
0.0
0
VERTEX
8
0
70
32
10
-12808870.4788
20
3979187.5732
30
0.0
0
VERTEX
8
0
70
32
10
-12808222.9006
20
3978986.93299
30
0.0
0
VERTEX
8
0
70
32
10
-12807901.0768
20
3978887.42391
30
0.0
0
VERTEX
8
0
70
32
10
-12807224.8093
20
3978678.58635
30
0.0
0
VERTEX
8
0
70
32
10
-12806979.0325
20
3978602.92283
30
0.0
0
VERTEX
8
0
70
32
10
-12806090.85
20
3978332.75625
30
0.0
0
VERTEX
8
0
70
32
10
-12805349.8094
20
3978108.89015
30
0.0
0
VERTEX
8
0
70
32
10
-12804828.5787
20
3977951.2947
30
0.0
0
VERTEX
8
0
70
32
10
-12804278.1857
20
3977785.30659
30
0.0
0
VERTEX
8
0
70
32
10
-12803642.0025
20
3977592.40734
30
0.0
0
VERTEX
8
0
70
32
10
-12803180.1628
20
3977450.7351
30
0.0
0
VERTEX
8
0
70
32
10
-12802510.7398
20
3977246.11837
30
0.0
0
VERTEX
8
0
70
32
10
-12802031.5196
20
3977099.47682
30
0.0
0
VERTEX
8
0
70
32
10
-12801388.986
20
3976903.14849
30
0.0
0
VERTEX
8
0
70
32
10
-12800920.0631
20
3976761.05479
30
0.0
0
VERTEX
8
0
70
32
10
-12800381.3021
20
3976597.58023
30
0.0
0
VERTEX
8
0
70
32
10
-12799945.3957
20
3976582.91711
30
0.0
0
VERTEX
8
0
70
32
10
-12799112.289
20
3976554.89852
30
0.0
0
VERTEX
8
0
70
32
10
-12798633.4696
20
3976538.80319
30
0.0
0
VERTEX
8
0
70
32
10
-12797939.4055
20
3976502.12156
30
0.0
0
VERTEX
8
0
70
32
10
-12797427.6083
20
3976464.44867
30
0.0
0
VERTEX
8
0
70
32
10
-12797170.4954
20
3976448.24735
30
0.0
0
VERTEX
8
0
70
32
10
-12796767.4933
20
3976438.52051
30
0.0
0
VERTEX
8
0
70
32
10
-12796458.7736
20
3976432.1305
30
0.0
0
VERTEX
8
0
70
32
10
-12795546.6742
20
3976410.47551
30
0.0
0
VERTEX
8
0
70
32
10
-12794732.1775
20
3976388.33421
30
0.0
0
VERTEX
8
0
70
32
10
-12794310.1301
20
3976376.90925
30
0.0
0
VERTEX
8
0
70
32
10
-12793336.2005
20
3976350.77299
30
0.0
0
VERTEX
8
0
70
32
10
-12793163.3641
20
3976346.25928
30
0.0
0
VERTEX
8
0
70
32
10
-12792190.4845
20
3976315.43356
30
0.0
0
VERTEX
8
0
70
32
10
-12791584.1424
20
3976291.23687
30
0.0
0
VERTEX
8
0
70
32
10
-12791283.5954
20
3976286.04016
30
0.0
0
VERTEX
8
0
70
32
10
-12791124.7762
20
3976138.17601
30
0.0
0
VERTEX
8
0
70
32
10
-12790950.6696
20
3976108.09351
30
0.0
0
VERTEX
8
0
70
32
10
-12790114.2779
20
3976113.41717
30
0.0
0
VERTEX
8
0
70
32
10
-12789601.9917
20
3976114.48898
30
0.0
0
VERTEX
8
0
70
32
10
-12789149.6198
20
3976115.20549
30
0.0
0
VERTEX
8
0
70
32
10
-12788794.5601
20
3976115.69949
30
0.0
0
VERTEX
8
0
70
32
10
-12787984.3168
20
3976116.7941
30
0.0
0
VERTEX
8
0
70
32
10
-12787393.4147
20
3976117.20575
30
0.0
0
VERTEX
8
0
70
32
10
-12786602.5236
20
3976118.23768
30
0.0
0
VERTEX
8
0
70
32
10
-12785951.9683
20
3976118.7206
30
0.0
0
VERTEX
8
0
70
32
10
-12785271.8963
20
3976119.1966
30
0.0
0
VERTEX
8
0
70
32
10
-12784472.0758
20
3976119.75413
30
0.0
0
VERTEX
8
0
70
32
10
-12783926.3541
20
3976120.13765
30
0.0
0
VERTEX
8
0
70
32
10
-12783347.3293
20
3976120.61924
30
0.0
0
VERTEX
8
0
70
32
10
-12782979.1354
20
3976120.33098
30
0.0
0
VERTEX
8
0
70
32
10
-12782638.6574
20
3976054.10255
30
0.0
0
VERTEX
8
0
70
32
10
-12782008.1967
20
3975931.7086
30
0.0
0
VERTEX
8
0
70
32
10
-12781756.3746
20
3975882.57291
30
0.0
0
VERTEX
8
0
70
32
10
-12780972.2384
20
3975729.77559
30
0.0
0
VERTEX
8
0
70
32
10
-12780425.2618
20
3975729.10053
30
0.0
0
VERTEX
8
0
70
32
10
-12780222.7306
20
3975728.67611
30
0.0
0
VERTEX
8
0
70
32
10
-12779384.616
20
3975730.01915
30
0.0
0
VERTEX
8
0
70
32
10
-12778783.4484
20
3975730.64365
30
0.0
0
VERTEX
8
0
70
32
10
-12778388.7221
20
3975730.80002
30
0.0
0
VERTEX
8
0
70
32
10
-12777952.514
20
3975730.79905
30
0.0
0
VERTEX
8
0
70
32
10
-12777370.6066
20
3975731.12007
30
0.0
0
VERTEX
8
0
70
32
10
-12777148.9383
20
3975731.26981
30
0.0
0
VERTEX
8
0
70
32
10
-12776363.0847
20
3975730.79552
30
0.0
0
VERTEX
8
0
70
32
10
-12775983.6308
20
3975730.80259
30
0.0
0
VERTEX
8
0
70
32
10
-12775598.7144
20
3975730.79565
30
0.0
0
VERTEX
8
0
70
32
10
-12775586.8241
20
3975740.48286
30
0.0
0
VERTEX
8
0
70
32
10
-12775541.8112
20
3975740.48292
30
0.0
0
VERTEX
8
0
70
32
10
-12775529.0717
20
3975730.79562
30
0.0
0
VERTEX
8
0
70
32
10
-12775278.5488
20
3975730.59515
30
0.0
0
VERTEX
8
0
70
32
10
-12775017.994
20
3975730.38034
30
0.0
0
VERTEX
8
0
70
32
10
-12774137.0682
20
3975734.36466
30
0.0
0
VERTEX
8
0
70
32
10
-12773239.0584
20
3975738.7476
30
0.0
0
VERTEX
8
0
70
32
10
-12772836.6663
20
3975740.72056
30
0.0
0
VERTEX
8
0
70
32
10
-12772328.6523
20
3975731.69588
30
0.0
0
VERTEX
8
0
70
32
10
-12771979.8451
20
3975728.75644
30
0.0
0
VERTEX
8
0
70
32
10
-12771604.3738
20
3975727.32135
30
0.0
0
VERTEX
8
0
70
32
10
-12771328.9687
20
3975726.36207
30
0.0
0
VERTEX
8
0
70
32
10
-12770794.5835
20
3975725.15614
30
0.0
0
VERTEX
8
0
70
32
10
-12770408.2492
20
3975723.95383
30
0.0
0
VERTEX
8
0
70
32
10
-12770123.2742
20
3975722.12847
30
0.0
0
VERTEX
8
0
70
32
10
-12770116.4798
20
3975724.67774
30
0.0
0
VERTEX
8
0
70
32
10
-12769805.5626
20
3975725.8783
30
0.0
0
VERTEX
8
0
70
32
10
-12769335.9504
20
3975727.67912
30
0.0
0
VERTEX
8
0
70
32
10
-12768876.2687
20
3975728.01173
30
0.0
0
VERTEX
8
0
70
32
10
-12768369.7264
20
3975725.57002
30
0.0
0
VERTEX
8
0
70
32
10
-12767895.3441
20
3975721.913
30
0.0
0
VERTEX
8
0
70
32
10
-12767594.0574
20
3975719.57928
30
0.0
0
VERTEX
8
0
70
32
10
-12767351.7117
20
3975720.26327
30
0.0
0
VERTEX
8
0
70
32
10
-12767056.0819
20
3975721.08985
30
0.0
0
VERTEX
8
0
70
32
10
-12766505.8729
20
3975721.62039
30
0.0
0
VERTEX
8
0
70
32
10
-12766432.5326
20
3975721.61921
30
0.0
0
VERTEX
8
0
70
32
10
-12766159.6913
20
3975721.92241
30
0.0
0
VERTEX
8
0
70
32
10
-12765699.4855
20
3975720.50048
30
0.0
0
VERTEX
8
0
70
32
10
-12765551.4898
20
3975719.06963
30
0.0
0
VERTEX
8
0
70
32
10
-12765196.4275
20
3975671.64489
30
0.0
0
VERTEX
8
0
70
32
10
-12764898.2559
20
3975634.65885
30
0.0
0
VERTEX
8
0
70
32
10
-12764663.3411
20
3975608.02593
30
0.0
0
VERTEX
8
0
70
32
10
-12764638.2922
20
3975604.59566
30
0.0
0
VERTEX
8
0
70
32
10
-12764594.3281
20
3975591.60674
30
0.0
0
VERTEX
8
0
70
32
10
-12764283.5929
20
3975590.01579
30
0.0
0
VERTEX
8
0
70
32
10
-12763840.1497
20
3975588.71589
30
0.0
0
VERTEX
8
0
70
32
10
-12763445.6533
20
3975587.01929
30
0.0
0
VERTEX
8
0
70
32
10
-12762919.2499
20
3975586.68744
30
0.0
0
VERTEX
8
0
70
32
10
-12762661.7797
20
3975586.25802
30
0.0
0
VERTEX
8
0
70
32
10
-12762341.8988
20
3975584.78957
30
0.0
0
VERTEX
8
0
70
32
10
-12762038.783
20
3975583.44931
30
0.0
0
VERTEX
8
0
70
32
10
-12762037.9337
20
3975600.27438
30
0.0
0
VERTEX
8
0
70
32
10
-12762017.5504
20
3975599.76452
30
0.0
0
VERTEX
8
0
70
32
10
-12762017.5505
20
3975597.72508
30
0.0
0
VERTEX
8
0
70
32
10
-12762004.811
20
3975597.72513
30
0.0
0
VERTEX
8
0
70
32
10
-12762004.811
20
3975583.44927
30
0.0
0
VERTEX
8
0
70
32
10
-12761587.7609
20
3975583.17209
30
0.0
0
VERTEX
8
0
70
32
10
-12761135.1818
20
3975580.90081
30
0.0
0
VERTEX
8
0
70
32
10
-12760745.2347
20
3975580.90052
30
0.0
0
VERTEX
8
0
70
32
10
-12760355.6307
20
3975579.03623
30
0.0
0
VERTEX
8
0
70
32
10
-12760219.5815
20
3975578.35094
30
0.0
0
VERTEX
8
0
70
32
10
-12760203.4447
20
3975569.68348
30
0.0
0
VERTEX
8
0
70
32
10
-12759892.1312
20
3975568.80063
30
0.0
0
VERTEX
8
0
70
32
10
-12759595.3832
20
3975571.60611
30
0.0
0
VERTEX
8
0
70
32
10
-12759181.2117
20
3975579.15323
30
0.0
0
VERTEX
8
0
70
32
10
-12758674.7941
20
3975588.66463
30
0.0
0
VERTEX
8
0
70
32
10
-12758328.4648
20
3975595.3086
30
0.0
0
VERTEX
8
0
70
32
10
-12758093.728
20
3975599.4934
30
0.0
0
VERTEX
8
0
70
32
10
-12757832.8223
20
3975603.97878
30
0.0
0
VERTEX
8
0
70
32
10
-12757524.8588
20
3975610.42268
30
0.0
0
VERTEX
8
0
70
32
10
-12757272.7084
20
3975615.7081
30
0.0
0
VERTEX
8
0
70
32
10
-12757033.3517
20
3975620.37307
30
0.0
0
VERTEX
8
0
70
32
10
-12756680.1797
20
3975626.96931
30
0.0
0
VERTEX
8
0
70
32
10
-12756463.2356
20
3975631.33658
30
0.0
0
VERTEX
8
0
70
32
10
-12755969.998
20
3975640.77754
30
0.0
0
VERTEX
8
0
70
32
10
-12755312.304
20
3975650.74199
30
0.0
0
VERTEX
8
0
70
32
10
-12754949.3169
20
3975661.07313
30
0.0
0
VERTEX
8
0
70
32
10
-12754569.4981
20
3975669.17537
30
0.0
0
VERTEX
8
0
70
32
10
-12754214.2513
20
3975675.38886
30
0.0
0
VERTEX
8
0
70
32
10
-12753978.0723
20
3975680.83129
30
0.0
0
VERTEX
8
0
70
32
10
-12753797.1712
20
3975740.9942
30
0.0
0
VERTEX
8
0
70
32
10
-12753546.8393
20
3975767.87438
30
0.0
0
VERTEX
8
0
70
32
10
-12753483.7794
20
3975774.64464
30
0.0
0
VERTEX
8
0
70
32
10
-12753095.1032
20
3975730.77029
30
0.0
0
VERTEX
8
0
70
32
10
-12752968.254
20
3975716.52112
30
0.0
0
VERTEX
8
0
70
32
10
-12752693.2966
20
3975715.94035
30
0.0
0
VERTEX
8
0
70
32
10
-12752396.8042
20
3975721.66493
30
0.0
0
VERTEX
8
0
70
32
10
-12752030.2217
20
3975728.70061
30
0.0
0
VERTEX
8
0
70
32
10
-12751901.5326
20
3975731.307
30
0.0
0
VERTEX
8
0
70
32
10
-12751889.7832
20
3975733.99404
30
0.0
0
VERTEX
8
0
70
32
10
-12751671.272
20
3975740.73118
30
0.0
0
VERTEX
8
0
70
32
10
-12751282.8599
20
3975749.36706
30
0.0
0
VERTEX
8
0
70
32
10
-12750850.2364
20
3975757.75158
30
0.0
0
VERTEX
8
0
70
32
10
-12750236.9037
20
3975766.48722
30
0.0
0
VERTEX
8
0
70
32
10
-12750076.5391
20
3975680.91365
30
0.0
0
VERTEX
8
0
70
32
10
-12750045.8111
20
3975664.51625
30
0.0
0
VERTEX
8
0
70
32
10
-12750047.5096
20
3975660.94738
30
0.0
0
VERTEX
8
0
70
32
10
-12750044.1124
20
3975659.41781
30
0.0
0
VERTEX
8
0
70
32
10
-12750039.8659
20
3975660.94732
30
0.0
0
VERTEX
8
0
70
32
10
-12749978.3635
20
3975627.30881
30
0.0
0
VERTEX
8
0
70
32
10
-12749928.6076
20
3975598.74558
30
0.0
0
VERTEX
8
0
70
32
10
-12749951.8732
20
3975555.99317
30
0.0
0
VERTEX
8
0
70
32
10
-12749747.4993
20
3975442.29797
30
0.0
0
VERTEX
8
0
70
32
10
-12749614.1678
20
3975371.06169
30
0.0
0
SEQEND
0
POLYLINE
8
0
66
1
70
8
0
VERTEX
8
0
70
32
10
-13150632.3281
20
4026882.16762
30
0.0
0
VERTEX
8
0
70
32
10
-13150625.1728
20
4026895.32769
30
0.0
0
VERTEX
8
0
70
32
10
-13150626.8714
20
4026895.83983
30
0.0
0
VERTEX
8
0
70
32
10
-13150568.5166
20
4027019.16959
30
0.0
0
SEQEND
0
ENDSEC
0
EOF
